<?xml version="1.0" encoding="utf-8"?>
<!-- Generator: Adobe Illustrator 17.1.0, SVG Export Plug-In . SVG Version: 6.00 Build 0)  -->
<!DOCTYPE svg PUBLIC "-//W3C//DTD SVG 1.1//EN" "http://www.w3.org/Graphics/SVG/1.1/DTD/svg11.dtd">
<svg version="1.1" id="Title_Screen" xmlns="http://www.w3.org/2000/svg" xmlns:xlink="http://www.w3.org/1999/xlink" x="0px"
	 y="0px" viewBox="0 0 1920 1080" enable-background="new 0 0 1920 1080" xml:space="preserve">
<g id="Color_1">
	<path fill="#6C65FF" d="M1314.1,584.8c0.9-5.3-2.6-8.5-5.7-11.8c-0.7-0.8-2-1.4-3.1-1.5c-5.9-0.4-9.5-3-11.4-8.2
		c-0.8-2.2-1.8-4.4-2.8-6.5c-2.4-5.2-4.7-10.5-7.5-15.6c-5.5-10.1-5.2-22.4-12.2-32c-2.1-2.9-5.4-4.5-8.2-2
		c-8.9,7.7-17.7,15.5-26.4,23.5c-3.6,3.3-5.6,3-8.3-1.3c-1-1.7-2.7-3-4.1-4.5c-0.5-0.5-1.1-1-1.5-1.6c-2.8-4.4-5.2-9.2-8.5-13.2
		c-4.2-5.1-9.7-9.2-13.8-14.3c-5.9-7.2-10.8-15.1-16.6-22.4c-3-3.8-1.1-5.1,1.8-7.3c7.7-5.9,15.1-12.2,22.6-18.4
		c1.2-1,2.2-2.5,3.5-3.4c3-2.1,6-4,9.1-5.8c4.1-2.5,8.2-5,12.4-7.2c2.2-1.1,3.6-0.2,4.4,2.5c1,3.4,2.6,6.6,4.3,9.7
		c1,1.8,2.7,3.3,4.1,4.9c-0.2,0.3-0.4,0.7-0.6,1c-3.3,0-6.6-0.3-9.8,0.1c-1.7,0.2-4.6,1.6-4.6,2.5c0,3.1,0.3,6.6,1.8,9.1
		c3.9,6.4,8.7,12.2,12.9,18.4c0.9,1.4,1.2,3.3,2,5.8c-1.5-0.7-2-0.8-2.2-1.1c-5-7.8-12-14.5-14.6-23.9c-0.2-0.8-1.1-1.7-1.8-1.9
		c-3.8-0.9-7.7-2.1-11.6-2c-1.9,0-3.9,2.3-5.7,3.7c-6.3,5.2-6.6,10.1-1.2,16.1c3.5,3.9,6.8,7.8,10.3,11.7
		c5.2,5.9,10.3,11.8,15.7,17.5c1.1,1.1,3.2,1.3,4.9,1.8c3.5,1.1,5.2-2.3,7.9-3.3c3-1.1,4.2-3.3,4.7-6.1c0.3-1.7,0.4-3.3,0.6-5
		c5.2,1.1,5.2,1.1,6.1-4.8c3.7,3.3,7.6,4.7,10.9,1.2c2.4,1,4.4,1.6,6.2,2.6c1.6,0.8,3.4,1.7,4.4,3.1c3.4,4.3,8.4,4.1,10.8-0.6
		c1.2-2.3-1.4-11-3.4-13.1c-6.8-7.2-13.9-14.2-20.1-21.9c-6.3-7.7-11.8-16.1-17.4-24.3c-2.7-4-4.8-8.4-7.4-12.5
		c-1.2-2-2.6-4.6-4.5-5.2c-1.9-0.6-4.9-0.5-6.4,2.4c-0.8,1.4-2,2.8-3.4,3.7c-6,3.9-12.5,7.1-18.3,11.3c-12,8.8-23.7,18-35.5,27.1
		c-4.9,3.8-7,12.2-3.8,15.8c5.8,6.5,12,12.8,18.1,19.1c5,5.3,10.4,10.3,15,15.9c5.3,6.4,10.1,13.3,14.9,20c2.9,4.1,5.6,8.5,8.3,12.8
		c2.3,3.8,7.2,4.6,9.2,1.5c3-4.7,5.8-9.7,9.2-14.1c2.4-3.1,5.7-5.5,9-8.5c1.3,3.2,2.1,5.7,3.2,8c2.6,5.3,5.7,10.3,7.8,15.8
		c2.5,6.2,4.1,12.8,6.3,19.1c2.4,6.8,5,13.5,7.9,20.2c4,9.2,8.7,18.2,12.5,27.5c4.2,10.5,7.7,21.2,11.6,31.8
		c2.2,6.1,4.4,12.1,6.9,18.1c1.9,4.4,11.7,7.4,15.9,5.2c4.2-2.2,8.3-6.5,13.4-1.6c0,0,0.2-0.1,0.9-0.4c-0.2-0.8-0.6-1.7-0.7-2.6
		c-0.1-1.5-0.7-3.6,0-4.5c3.4-3.9,0.4-6.2-1.8-8.6c-3-3.2-6.4-5.8-9-9.7c-7.2-11.2-14.6-22.3-20.1-34.5c-1.3-2.9-2.2-6-3.2-8.9
		c1.1,0.1,1.8,0.5,2.4,1c0.4-4.7,3.6-9.1,4-13.8C1314.3,585.7,1314,585.2,1314.1,584.8z M1239.3,493.4c-7.1-7.2-15.6-13.2-20.6-22.4
		c-0.4-0.8,0.1-2.1,0.2-3.2c1.2,0.1,2.8-0.1,3.4,0.5c2.6,2.7,5,5.6,7.3,8.6c3.1,4,6.2,8.1,9.1,12.3c0.7,1,1,2.3,1.5,3.5
		C1239.9,492.9,1239.6,493.1,1239.3,493.4z M1276.3,481.4c0.6,0.9,0.1,2.7,0.1,5.1c-8.5-9.7-17.6-17.3-22.8-28.3
		C1262.4,464.7,1269.8,472.6,1276.3,481.4z M1325.9,654.5c0.6,0.8,1.8,2,1.6,2.2c-1,1.3-2.3,2.5-3.8,4c-1.2-1.1-1.8-1.6-2.4-2.2
		C1322.8,657.1,1324.3,655.8,1325.9,654.5z M1308.6,625.5c2.4,3.8,4.9,7.5,7.4,11.3c1.1,1.7,2.6,3.4,3.4,5.2
		c0.4,0.9-0.1,3.1-0.6,3.2c-1.1,0.3-3.3,0.2-3.6-0.5c-2.8-6.1-5.4-12.3-8-18.5C1307.6,626,1308.1,625.7,1308.6,625.5z"/>
	<path d="M1772.3,645.4c-0.5-4.9-0.8-9.9-2-14.6c-0.5-2.2-2.5-5.2-4.4-5.8c-3.3-0.9-2.9,2.8-3.6,4.8c0,0.1-0.2,0.1-0.6,0.4
		c-0.9-0.9-2.2-1.6-2.8-2.8c-4.2-8.1-8.5-16.1-12.4-24.3c-2.5-5.2-4.6-10.7-6.9-16c-2-4.4-3.8-8.9-6.1-13.1
		c-3.4-6.2-6.8-12.4-10.7-18.2c-1.4-2.2-4.1-3.7-6.6-4.9c-0.9-0.4-3.2,0.7-3.9,1.8c-0.8,1.1-1.1,3.3-0.4,4.3c2.7,4.3,6.3,8,8.7,12.4
		c5.2,9.4,9.9,19,14.6,28.7c4,8.2,7.8,16.5,11.6,24.8c0.5,1.1,0.8,2.3,1.5,4.5c-2.6-2.1-4.2-3.2-5.6-4.5c-2.9-2.8-6.3-5.4-8.5-8.7
		c-4.5-6.9-8.5-14.2-12.5-21.4c-1.3-2.3-2.1-4.5-0.5-7.4c0.9-1.6,0.3-4.8-0.8-6.6c-4.4-6.9-8.4-13.8-10.1-22c-0.6-3.1-2.6-6-3.9-8.9
		c-1.3-2.8-2.8-5.4-3.8-8.3c-1.3-3.5-3.3-5.5-7.2-5.7c-1.3,0-3.2-0.6-3.6-1.5c-1.4-3.5-2.4-7.3-3.5-10.9c0.3-0.2,0.6-0.3,0.9-0.5
		c0.7,1.2,1.3,2.5,2.1,3.6c1,1.4,1.9,3.2,3.3,3.8c0.7,0.3,2.4-1.7,4.5-3.3c4.8,4.7,10.4,9.6,15.2,15.1c3.2,3.7,5.3,7.7,9.9,10.6
		c7.4,4.7,13.3,11.9,20,17.7c4.8,4.2,10,8,15.3,11.6c1.6,1.1,4.2,0.8,6.8,1.3c-0.8-4.6-2.8-6.8-6.1-8.2c-1.9-0.8-3.7-2.2-5.2-3.6
		c-8.8-8.2-17.6-16.5-26.3-24.9c-4.3-4.1-8.8-8-10.4-14.2c-0.7-2.7-2-5.4-3.6-7.8c-6.1-9-11.8-18.3-18.7-26.6
		c-9.5-11.5-19.8-22.4-30.2-33.1c-3.1-3.2-7.5-5.2-11.6-7c-3.2-1.4-5.4,0.4-6.3,4c-0.3,1.2-0.8,2.3-1.6,4.5
		c-4.7-5.2-9-9.5-12.7-14.1c-2-2.5-4-3.3-6.3-1.6c-2.7,2-1,4.4,0.6,6.1c4.6,4.8,9.5,9.4,14.2,14.2c1,1,2.4,2.2,2.5,3.4
		c0.5,4.1,1.2,7.5,5.1,10.3c2.4,1.7,3.6,5.1,7.6,4.4c0.6-0.1,1.6,0.8,2.1,1.4c3.9,5.3,7.8,10.7,11.6,16.2c0.2,0.3-0.2,0.9-0.3,1.4
		c-4.6-1.9-8.3-8.1-14.5-1.8c-4.3-5.2-8.4-10-12.2-14.9c-5.9-7.5-13.3-14.2-15.1-24.3c-0.2-1.3-1.4-2.6-2.4-3.5
		c-7-6.8-14-13.5-21-20.2c-3-2.8-5.7-6.3-9.2-8c-9.4-4.4-19.2-7.9-29.2-11.9c0.4-0.1,0.8-0.2,1.3-0.3c-8.1-2.1-16.3-3.5-24.4-4.6
		c-5.6,0-11.1-1.6-16.7-4c-7.1-2-14.2-2.8-21.2-3.2c1.7,0.9,3.3,2.3,4.9,3.4c-0.9,1-1.7,2-3.3,3.8c-2-2-3.6-3.3-4.7-4.8
		c-0.1-0.2,1.4-1.9,2.2-2.5c-8.6-0.5-17.2-0.5-25.7-1.6c-1.5,0.9-2.4,1.7-3.5,2c-9.2,2.3-15.7,9.2-23.3,14.1
		c-4.6,2.9-8.1,7.4-12.3,11c-7,6-11.2,13.9-15.4,21.8c-3.1,6-5.1,12.5-7.7,18.7c-3.6,8.6-7.2,17.1-8.8,26.6
		c-1.3,7.7-2.1,15.1-1.4,22.7c0.8,8.4,1.6,16.7,2.6,25c1.3,10.4,4.9,20.1,9.7,29.4c2.3,4.5,4,9.4,6.4,13.8c2.6,4.6,6.1,8.8,8.7,13.4
		c6.4,11.1,14.8,20.2,25,27.8c3,2.2,5.4,5.2,8.6,7c3.2,1.7,3.3,3.8,3,6.8c-0.5,6.3-1.5,12.8-0.6,18.9c1.3,9.1,1.5,18.2,1.4,27.4
		c0,2.6,0.2,5.2,0.2,7.8c0,9.6-0.4,19.3-0.1,28.9c0.2,7.3,4.5,9.2,10.7,5.3c1.5-1,3.2-2.1,4.9-2.4c4.2-0.8,8.5-1.2,12.8-1.8
		c11.1-1.7,22,0.8,32.8,2.4c8.5,1.3,16.9,2.9,25.4,4.4c0.6,0.1,1.3,0.1,2,0c7.8-1.4,14.9-6,23.2-5.1c0.5,0,0.9-0.6,1.4-0.6
		c3.2-0.2,6.9-1.3,9.6-0.1c4.8,2.1,5,2.6,8.8-1.7c2.2-2.5,2-6.2-0.2-8.9c-0.9-1.1-2-2.3-2.1-3.5c-1-11.6-1.6-23.1-2.6-34.7
		c-0.7-7.8-1.9-15.6-3.1-23.4c-0.4-2.6-0.1-4.3,2.7-5.2c1.8-0.6,3.3-1.9,4.9-2.9c2.2-1.3,4.5-2.6,7.3-4.2c0.6,2,1.3,3.4,1.4,4.9
		c0.9,18.5,1.8,36.9,2.4,55.4c0.4,12.9-0.3,25.8,0.7,38.6c1.2,15,3.9,29.8,5.6,44.8c0.4,3,0.1,6.2-0.6,9.2c-1.5,6,1.6,14.2,6.8,17.4
		c1,0.6,2.2,1.7,2.5,2.8c2.8,7.9,5.4,15.9,8,23.9c0.4,1.3,0.7,2.6,1.2,4.5c-1.4-0.5-2.1-0.6-2.6-0.9c-5.8-2.6-8.6-1.9-12.7,3
		c-0.7,0.8-2,1.4-3.1,1.3c-11.6-0.5-23.3-1.1-34.9-1.8c-10.5-0.6-21.1-1-31.6-1.9c-18-1.4-35.9-2.8-53.9-1.2
		c-8.3,0.8-16.6,2.2-24.9,3.7c-4.9,0.9-5.8,0.4-5.4-4.7c0.6-6.8,1-13.7,1.7-20.5c0.3-2.2,1-4.8,2.4-6.5c3.4-4.4,3.7-8.3,0.5-13
		c-2.3-3.4-4.6-7.4-5.3-11.4c-1.8-9.8-3.6-19.7-3.6-29.6c0-9.2-2.9-18.4-0.5-27.6c0.1-0.5-0.1-1-0.1-1.6c-0.3-4.1-0.8-8.2-1-12.4
		c-0.6-11.3-1-22.7-1.6-34c-0.5-9.5-1.3-19-2-28.4c-0.5-7.7-1.1-15.5-1.2-23.2c-0.1-4.1-1.1-5.8-5-5.9c-2.8-0.1-5.2,2.8-4.9,5.9
		c0.4,4.1,1,8.3,1.4,12.4c1.7,18.5,3.5,37,5.1,55.5c0.1,1.5-0.2,3-0.4,5c-3.9-2.7-7.5-4.8-10.5-7.4c-3.7-3.3-8-6.2-9.4-11.6
		c-0.2-0.9-1-1.8-1.7-2.3c-4.3-2.9-8.7-5.6-12.9-8.7c-9.6-7.1-19.1-14.3-28.6-21.6c-6.7-5.2-13.4-10.4-19.9-15.9
		c-6.6-5.6-13-11.4-19.4-17.2c-5.7-5.2-11.8-10-16.9-15.7c-7.2-8.1-13.7-16.9-20.5-25.5c-0.1-0.2-0.3-0.4-0.4-0.6
		c-0.4,4.7-3.6,9.1-4,13.8c0.2,0.1,0.4,0.3,0.5,0.5c3,3.1,5.8,6.4,9,9.4c13.2,12.3,26.3,24.7,39.9,36.7c13.1,11.6,26,23.6,40.3,33.6
		c12.6,8.9,22.9,20.1,34.8,29.8c5.4,4.4,10.8,8.6,16.1,13.1c1.6,1.4,3.8,3.1,4.1,4.9c0.8,4.5,0.9,9.1,1,13.7
		c0.1,10-0.3,20.1,0.1,30.1c0.3,6.7,1.9,13.3,2.8,19.9c1,7.4,2,14.9,3,22.3c0.4,3.5,1.3,7.1,0.9,10.6c-0.9,7.8-2.2,15.5-1.8,23.4
		c0.3,5,0.3,10,0.3,15c0,3.1,1.6,5.7,4.2,6.3c1.5,0.4,3.9-1.4,5.5-2.7c2.1-1.7,3.9-2.7,5.4,0.2c2.1,3.9,4.6,7.8,5.7,12
		c3,11.6,5.5,23.4,8.1,35.2c4,18,7.5,36.2,11.9,54.1c1.4,5.7,4.3,11.1,7.2,16.3c1.7,3,4.5,2.4,6.1-0.6c0.4-0.7,0.7-1.5,1-2.2
		c0.7,1.4,0.6,2.7,0.8,3.9c0.8,4.8,6.7,8,10,5.4c3.5-2.7,4-11.4,1.2-14.8c-1.3-1.5-2.5-3.5-2.8-5.4c-1.2-7.4-2-14.9-3-22.4
		c-1.6-12.7-3.2-25.4-4.9-38.1c-0.9-6.7-2.3-13.4-2.9-20.2c-0.8-9.4-1-18.9-1.7-28.3c-0.2-3.3,0.6-5,4.3-4.8
		c6.3,0.4,12.6,0.8,19,0.9c9.3,0.2,18.6-0.2,27.9,0.3c9.1,0.5,18.1,2,27.1,2.5c4.1,0.2,5.3,2.5,6,5.5c1.7,7.5,3.2,15.1,4.6,22.7
		c2.5,13.3,5,26.6,7.3,40c1.3,7.4,2.6,14.8,3.3,22.3c0.7,7.3,2.3,14.1,6.4,20.3c1.1,1.7,3,3.4,3.1,5.2c0.4,6.7,0.4,13.4,0.3,20.1
		c-0.1,3.7-1.1,7.6,2.4,10.1c1.7,1.2,5.8,2,6.2,1.4c1.6-2.6,5.5-3.6,4.9-7.9c-1.5-11.2-2.6-22.4-3.7-33.7c-0.4-3.8,0-7.6-0.1-11.4
		c-0.4-11-0.8-22-1.4-33.1c-0.7-11.8-1.8-23.6-2.4-35.5c-0.3-6.5,0-13,0.3-19.5c0.1-2.6,9.7-8.3,12-7c1.5,0.9,2.3,3,3.7,4.3
		c1,0.9,2.5,1.7,3.9,1.8c0.7,0.1,1.7-1.3,2.4-2.1c0.6-0.7,0.9-1.8,1.7-2.3c2.1-1.5,1.8-3,0.8-5.1c-2.6-5.6-5.2-11.2-7.3-16.9
		c-3-8.4-5.7-16.9-8.3-25.4c-1.8-5.9-2.9-11.9-4.5-17.8c-1.6-5.9-0.2-12.5-4.5-17.8c-0.5-0.6-0.5-1.8-0.6-2.7
		c-1.2-9.9-2.3-19.9-3.6-30.3c3.8,0,7.2,0.2,10.5-0.1c1.1-0.1,2.4-1.1,3.2-2c2.1-2.4,3.5-5.9,6.1-7.5c8.6-5.3,17.5-10.2,26.4-14.8
		c9.6-5,19.4-9.6,29.1-14.4c6.5-3.2,13-6.5,19.5-9.8c5.8-3,11.6-6.1,17.5-9c1.5-0.7,4-1.3,5.3-0.6c10,5.4,18.8-1.2,23.2-9.1
		c0.4-0.7-0.2-2.5-0.9-3.1c-3.3-3-6.6-6.1-10.2-8.7c-2.7-1.9-6.1-2.5-8.8,0c-3.6,3.3-7,6.2-11.6,8.2c-5.5,2.4-10.2,6.8-15.5,9.9
		c-8.6,4.9-17.4,9.4-26.2,14.1c-8.5,4.6-17,9.3-25.5,13.9c-5,2.7-10.1,5.4-15.1,8.2c-4,2.2-7.8,4.7-11.7,6.9c-5.3,3-10.6,6-16.1,9.1
		c-0.3-4.8-0.7-9.5-0.7-14.1c0-7.6,0.4-15.2,0.3-22.9c-0.1-9.7-0.7-19.5-0.8-29.2c-0.1-5.5,0.2-11,0.8-16.5
		c0.5-4.7,1.8-9.2,2.8-13.8c0.1-0.3,0.5-0.6,0.8-0.9c4.2-4.1,8-8.8,12.7-12.1c7.6-5.1,11.6-13,17.2-19.7c2.9-3.5,5-7.8,7.6-12.1
		c1,1.6,2,2.7,2.5,3.9c2.3,5.6,3.9,11.5,6.7,16.8c5.5,10.4,11.5,20.6,17.6,30.6c2.5,4.2,4.8,4.2,8.8,1c-0.9-1.3-1.6-2.6-2.6-3.8
		c-3.2-4.2-7.2-8.1-9.7-12.7c-8-14.6-13.9-30.2-18-46.4c-0.6-2.4-0.3-5.2,0.2-7.7c0.9-5.3,2.2-10.6,3.4-15.8
		c0.3-1.4,0.8-2.8,1.1-4.2c0.4,0,0.8,0,1.2,0c1.9,5.3,3.8,10.5,5.6,15.8c2.1,6.2,3.8,12.6,6.1,18.7c3.9,10.5,9.4,20.1,16.2,28.9
		c1.3,1.7,4.6,2.1,7.1,2.7c0.5,0.1,2.3-2.1,2.2-3.1c-0.4-2.2-1-5.2-2.6-6.1c-4.5-2.6-7.4-6.1-9.1-10.9c-0.6-1.7-1.4-3.4-2.2-5.1
		c-3.2-7.2-6.6-14.3-9.4-21.6c-1.2-3.1-1.1-6.8-1.5-10.2c0.4-0.1,0.7-0.2,1.1-0.3c1.3,2.3,2.7,4.7,3.9,7c3.6,6.8,7.4,13.3,15.7,15.5
		c1.4,0.4,2.6,2.2,3.5,3.5c3.1,4.8,6.1,9.8,9.1,14.7c2.5,4,4.7,8.4,7.7,11.9c4.2,4.8,9.1,9,13.5,13.6c4.8,5.1,5.1,5.2,10.3,0.7
		c2.3,3,4.4,6.3,7,9.1c2.3,2.5,4.8,4.8,7.7,6.6C1769.5,650.6,1772.6,648.3,1772.3,645.4z M1515.2,963.4c0.2,1.7,0.4,3.4,0.5,5
		c-0.6,0.2-1.1,0.5-1.7,0.7c-1.1-2.1-2.5-4-3.1-6.2c-2.7-10.3-5.4-20.6-7.7-31c-3-13.6-5.3-27.3-8.5-40.8
		c-2.1-8.8-5.3-17.2-7.9-25.9c-1.6-5.2-1.2-5.7,4.2-6.7c2.6-0.5,5.1-0.7,7.7-1.1c3-0.5,4.1,1.2,4.3,3.8c1,12,1.7,24,3,35.9
		c0.9,8.5,2.9,16.8,4.1,25.3c1.2,8.3,1.8,16.7,2.8,25C1513.6,952.7,1514.4,958,1515.2,963.4z M1620.8,933c-0.4,0-0.8,0-1.3,0
		c-0.3-1.6-0.5-3.3-0.8-4.9c-2-11.4-4.1-22.8-6.2-34.2c-1.7-9.7-3.4-19.4-4.9-29.1c-0.1-0.8,1.1-2.6,2-2.8c7.4-1.2,7.2-1.1,7.7,6.4
		c1,14.2,2.2,28.3,3.2,42.5c0.4,5.4,0.5,10.8,0.6,16.3C1621.2,929.2,1620.9,931.1,1620.8,933z M1614.2,467.2
		c-7.1-7.1-14.4-12.5-21.4-19.6C1598.5,447,1612.3,460.1,1614.2,467.2z M1540.8,426.2c0.4-0.8,2.2-1.5,3-1.2c4.6,1.5,9.1,3.2,13.6,5
		c0.5,0.2,1,1.6,0.9,2.2c-1.1,3.6,0.8,5,3.7,6.3c5.4,2.4,10.9,4.9,16.1,7.7c1.1,0.6,1.9,2.7,2,4.2c0.3,5.2,2.1,6.9,7.2,5.8
		c4.2-0.9,6.7,1.9,9,4.1c6.8,6.5,13.2,13.5,19.7,20.3c3.7,3.9,7.5,7.9,11.1,12c1.2,1.4,2,3.2,3,4.8c-0.4,0.4-0.7,0.7-1.1,1.1
		c-3.2-1.9-6.6-3.6-9.6-5.8c-5-3.6-9.8-7.5-14.8-11.1c-13.4-9.8-26.8-19.6-40.2-29.4c-8.8-6.4-17-13.5-23-22.8
		C1540.9,428.5,1540.4,426.9,1540.8,426.2z M1524.8,425.8c5.6,3,9.1,8.1,11.8,13.8c0.5,1,1,2.1,1.9,2.8c8.1,6.9,16.3,13.8,24.4,20.6
		c-0.5,0.5-0.9,1-1.4,1.6c-15.5-12.7-31-25.4-47.2-38.6C1518.5,423.7,1521.9,424.3,1524.8,425.8z M1467.7,423.2
		c0.4,0.4,0.8,0.7,1.2,1.1c-1.1,1.2-2.6,2.2-3.4,3.6c-1.8,3.2-4.1,6.4-4.9,9.8c-0.8,3.4-3,5-5,7.1c-4.3,4.4-8.4,8.9-12.7,13.2
		c-3.3,3.3-6.9,6.2-10.4,9.3c-0.3-0.3-0.6-0.7-0.9-1C1437.8,446.9,1450.3,432.9,1467.7,423.2z M1591.9,720.6
		c-5.4,1.7-10.6,3.5-15.9,4.8c-2.2,0.5-4.7,0.4-6.9-0.3c-4.6-1.4-6.1-1-9,2.9c-0.7,0.9-2.4,1.3-3.6,1.4c-10.8,0.7-21.1-2.3-31.5-4.5
		c-10-2.1-20-1.9-30.1-1.2c-3.5,0.3-7.2,0.5-10.6-0.2c-1.6-0.3-3.8-2.9-3.8-4.5c-0.4-14.2-0.7-28.5-0.2-42.8
		c0.3-6.8,2.4-13.6,3.8-20.4c0.5-2.3,1.9-3.1,4.1-2c3.5,1.8,6.8,4,10.4,5.5c4.9,2,10,3.8,15.2,5.1c6.3,1.6,12.4,3,16.6,8.8
		c2.5,3.5,4.6,3.7,7.5,0.8c2.8-2.8,6.2-2.5,9.5-3.1c7.9-1.4,15.9-2.4,23.7-4.1c4-0.9,7.8-2.8,11.4-4.8c4.1-2.3,4.3,0.9,4.8,3.1
		c1,4.6,1.9,9.3,2.3,14c1,13.1,1.8,26.3,2.6,39.4C1592,719.5,1591.9,720.2,1591.9,720.6z M1501.3,619c-2.6-1.6-4.7-4.2-7-6.3
		c0.2-0.4,0.3-0.9,0.5-1.3c3.1-1,6.1-2.3,9.3-2.8c6.6-1.2,13.3-1.9,19.9-2.8c2.8-0.4,5.6-1.4,8,1.6c0.8,1,2.6,1.1,3.9,1.5
		c1.4,3.4,0,5.5-3.1,6.9c-5.2,2.4-10.2,5.4-15.6,7.3C1511.4,625.1,1506.1,622,1501.3,619z M1662.3,566.5c0,0.1-0.2,0.1-0.6,0.3
		c-3.3-3.1-5-7.1-6.5-11.4c-0.7-2.1-2.8-4-4.7-5.2c-0.8-0.5-3.2,0.6-4.4,1.6c-2,1.7-1.7,3.6-0.1,5.9c4.4,6.3,8.5,12.8,12.5,19.4
		c0.6,1.1,0.5,2.9,0.2,4.2c-1.8,7.8-5.3,14.9-9.6,21.7c-7.4,11.6-17.4,20.5-27.9,28.9c-2,1.6-4.6,2.5-6.8,3.8
		c-6.4,3.8-12.6,8.1-19.2,11.4c-8.4,4.2-16.8,8.4-25.7,11.1c-8.1,2.5-16.9,3-25.4,4.1c-3.6,0.5-5.6-1.5-5.5-5.1
		c0.2-7.7,0.9-15.3,0.9-23c0-2.2-1.3-4.8-2.8-6.6c-1.7-2-1.6-2.5,0.6-4c3.7-2.6,7-5.9,10.2-9.2c0.9-0.9,0.7-3,0.7-4.6
		c0.1-3-1.4-5.8,0.1-9.1c0.8-1.8-1-5-4.2-5.1c-3.7,0-7.5,0.4-11.2,0.8c-12.9,1.3-25.8,2.6-38.7,4.1c-4.2,0.5-8.3,1.2-12.4,1.7
		c-2.7,0.3-4.7,1.5-5,4.2c-0.4,3,0.4,5.7,3.1,7.7c1.1,0.8,1.9,1.8,2.8,2.8c0.7,0.8,1.2,1.8,2,2.4c5.1,3.4,10.2,6.6,15.3,9.9
		c0.7,0.4,1.4,0.9,2.1,1.1c3.9,1,5.5,2.8,3.8,7.1c-0.6,1.6,0.3,4.8,1.6,6c3.7,3.3,4,7.6,5.4,11.7c-0.3,0.4-0.5,0.8-0.8,1.2
		c-3.3-1.3-6.7-2.4-9.9-4c-6.1-3.1-12.2-6.1-17.9-9.8c-5.8-3.8-10.9-8.6-16.6-12.6c-8.3-5.8-15-13.1-20.4-21.5
		c-3.8-5.9-7.6-11.9-11.6-17.7c-5.7-8.2-9.1-17.5-12.5-26.6c-2.9-7.7-3.3-16.4-4.6-24.7c-0.8-4.7-1.5-9.4-1.7-14.1
		c-0.3-6.2-0.8-12.5,0.3-18.5c1.3-7.6,4-14.9,6.3-22.3c0.3-0.9,1.2-1.6,1.9-2.3c3.5-3.3,6.9-6.7,10.4-9.9c4.4-4,9-7.8,13.5-11.7
		c0.3,0.3,0.7,0.6,1,0.8c-1.7,4.3-3.3,8.7-5,13c-1.9,4.7-3.7,9.5-5.8,14.1c-0.6,1.4-2.4,2.2-3.7,3.2c-1.4,1-3,1.8-4.2,3
		c-1.8,2-3,4.7-5,6.4c-5,4.1-4.8,9.6-3.8,14.8c0.4,2,3.7,3.4,5.7,5.1c0.1,0.1,0.6,0.1,0.8-0.1c2-1.7,4.4-3.2,5.8-5.3
		c5.9-8.7,11.7-17.4,17.1-26.4c4.9-8.3,9.5-16.8,13.5-25.5c2.7-6,4.1-12.7,6.3-18.9c1-3,2.4-5.8,3.8-8.6c2.1-4.3,4.3-8.6,6.5-13
		c0.4-0.8,0.6-1.7,1-2.5c0.7-1.5,1.4-3,2.1-4.5c1.9,0.9,4.7,1.3,5.4,2.7c1.9,4.2,5.7,4.6,9.2,6.4c5.1,2.6,9.9,6,14.3,9.7
		c8.9,7.4,17.3,15.3,26.1,22.7c8.7,7.3,17.5,14.7,26.7,21.4c5.1,3.7,11.3,6.1,16.9,9.2c6.7,3.8,13.4,7.8,20.1,11.6
		c4.6,2.7,9.3,5.4,14.1,7.7c0.9,0.4,2.8-0.7,3.8-1.5c0.9-0.8,1.3-2.2,1.9-3.2c11.6,4.1,21.2,10.3,28.6,19.8c2.3,3,5.3,5.6,7.9,8.3
		c0.2,0.2,0.4,0.4,0.4,0.6C1664.5,542.9,1668.4,554.4,1662.3,566.5z M1668.7,525.6c-1.5-3.7-2.8-6.6-4-9.6
		C1668.8,518.5,1670.4,522,1668.7,525.6z M1685.5,515.9c-2.7-4.9-5.1-9.6-7.9-14c-3.8-6.1-7-12.5-12.7-17.2c-3.6-3-6.5-6.8-9.1-10.7
		c-0.9-1.4,0-4.1,0.1-6.2c1.9,0.4,4.4,0.1,5.6,1.3c6.1,5.9,12,12.2,17.8,18.5c6.2,6.8,12.2,13.7,18.2,20.8c1.7,2.1,2.9,4.6,4.4,6.9
		c-0.2,0.3-0.3,0.7-0.5,1C1696.1,514.1,1690.9,508.6,1685.5,515.9z M1705.1,579.4c-3.9-1.7-3.9-5.3-4.9-8.5c0.5-0.3,1-0.6,1.6-0.9
		c1.6,2.9,3.2,5.8,4.8,8.7C1706.1,579,1705.6,579.2,1705.1,579.4z"/>
	<path d="M1505.5,409.2c0.2,0.1,0.3,0.2,0.5,0.2c7.1,0.4,14.1,1.2,21.2,3.2c5.6,2.4,11.1,4,16.7,4c8.1,1.1,16.3,2.6,24.4,4.6
		c0.8-0.2,1.6-0.3,2.3-0.1c6.4,1.5,12.7,3.2,19,4.9c0.7,0.2,1.7,0.5,2.1,1.1c2.5,3.4,6.3,3.3,10,3.7c5.8,0.6,10-4.1,8.7-9.9
		c-0.4-1.9-0.8-3.9-0.6-5.8c1.6-11.3,3.3-22.5,5.1-33.8c0.8-5.3,1.5-10.6,2.7-15.8c4.5-18.8,7.2-38,13-56.6
		c1.4-4.5,2.4-9.4,6.9-12.3c0.5-0.4,0.5-3,0-3.3c-3-1.7-6.1-3.8-9.4-4.2c-17.9-1.9-35.9-3.3-53.8-5.1c-7-0.7-13.8-2.1-20.8-3
		c-11.7-1.5-23.4-3-35.2-4.2c-4.3-0.4-6.9,3.8-5.7,8c0.6,2,0.9,4.1,0.7,6.2c-0.3,3.7-1.1,7.3-1.7,10.9c-2.3,13.6-4.2,27.3-7.2,40.7
		c-2,8.9-5.4,17.5-8.4,26.1c-2.9,8.2-6,16.2-9.2,24.2c-0.4,1.1-2.4,1.8-3.7,2.2c-1.1,0.3-2.3-0.3-3.5-0.6c-2.8-0.5-5.1-0.2-5.9,3
		c-0.7,2.9-0.6,5.5,2.6,7c1.1,0.6,2.1,1.6,3.4,2.7c-0.2,0.1-0.3,0.2-0.5,0.3c8.5,1.1,17.1,1.2,25.7,1.6
		C1505.3,409.2,1505.5,409.2,1505.5,409.2z M1499.9,387.4c1.8-9.6,3.1-19.2,5-28.7c1.3-6.6,3.3-13,4.7-19.5
		c1.2-5.4,1.8-10.9,2.8-16.3c1.7-9,3.6-18,5.4-27c0-0.1,0.1-0.2,0.2-0.4c0.6-2.6,0.4-6.6,1.9-7.4c2.9-1.6,6.8-1.5,10.3-1.8
		c9.6-0.8,19,1.6,28.5,2.8c10.5,1.4,21,2.3,31.5,3.5c2.5,0.3,4.9,0.9,7.4,1.1c6.9,0.6,13.8,1.1,20.7,1.8c3.4,0.3,4.3,2.1,3.6,5.5
		c-2.4,11.4-4.5,22.8-6.8,34.2c-3,14.8-6.1,29.6-9.1,44.5c-0.8,4.2-1.3,8.5-1.9,12.8c-0.9,5.8-1.4,11.8-3,17.4
		c-0.9,3.1-3.6,5.7-5.5,8.6c-5.7-0.9-5.3-1-6.1-7c-1.6-13.2,0.5-25.8,3.6-38.6c1.9-7.9,2.8-16.1,4.5-24.1c1.9-8.7,4.4-17.3,6.2-26.1
		c0.5-2.2,0.4-6-0.8-6.7c-2.1-1.2-5.2-0.5-7.8-0.4c-0.5,0-1.1,1.4-1.3,2.2c-1.9,12.7-3.6,25.5-5.8,38.1c-1.3,7.5-3.7,14.7-5,22.2
		c-1.5,8.8-2.4,17.8-3.5,26.7c-0.1,0.8-0.2,1.6-0.3,2.4c-1.2,6.2-1.4,6.3-7.4,4.4c-1.1-0.4-2.3-0.7-3.4-1.1
		c-5.8-1.7-6.3-1.9-5.6-7.9c0.9-7.9,2.5-15.8,3.6-23.7c0.4-3.3,0.7-6.8,0.1-10c-0.3-1.4-2.8-3.1-4.5-3.3c-1.1-0.2-3.1,1.8-3.7,3.2
		c-2.7,6.6-3.9,13.6-3.9,20.9c0,6.2-0.5,12.3-0.9,18.7c-7,0.7-9-1.5-8.3-7.3c1.2-9.7,2-19.4,3.3-29c1-7.2,2.4-14.4,4-21.5
		c1.5-6.9,3.6-13.6,5.2-20.5c1.2-4.9-0.2-6.9-4.5-7.9c-3.1-0.7-4.5,0.8-5,3.5c-2.1,11.3-4.4,22.5-6.1,33.8
		c-1.9,12.5-3.2,25.1-4.9,37.6c-1,7.3,0.2,10.5-10.1,6.7c-2.6-12.6-0.3-24.8,2.5-37.1c1.8-7.9,2.6-16.1,4.1-24.1
		c1.4-7.8,3.2-15.6,4.6-23.4c0.5-2.8,0.7-5.7,1.1-8.6c0.3-2.4,0.1-4.4-3.1-4.8c-3-0.3-4.9,0.4-5.4,3.6c-2.1,12.9-4.2,25.7-6.5,38.6
		c-1.7,9.7-3.8,19.4-5.5,29.1c-1,5.8-1.3,11.7-2.4,17.4c-1.4,7.8-1.6,7.8-9.3,5.2C1500.1,397.3,1498.6,394.6,1499.9,387.4z"/>
	<path d="M313.9,401.7c-1.2-4-1.8-8.2-2.9-12.3c-0.6-2.2-1.9-4.2-2.5-6.4c-0.7-3-1-6.1-1.6-10.1c6.6-1.7,12.8-3.3,19.1-5
		c1.9-0.5,3.6-1.5,5.5-2c3-0.8,6-1.4,9.1-2c1.4-0.3,2.9-0.1,4.3-0.5c9-2.1,18-4.3,27-6.2c3.3-0.7,6.8-0.4,10.1-1
		c3.3-0.6,6.5-2.1,9.8-2.6c10.6-1.6,21.1-3,31.7-4.3c11.5-1.4,23.1-2.6,34.6-3.8c2.3-0.2,4.7,0,6.9,0c0.4,2.8,0.1,5.3,1.1,7.3
		c1.6,3.4,6.7,4.2,10.9,3c3.1-0.9,6.4-1,9.6-1.1c0.4,0,1.6,2.4,1.2,3c-3.9,7.3-8.1,14.4-11.9,21.7c-2.4,4.5-4.3,9.3-6.1,14
		c-1.6,4.1-3.1,8.2-4.6,12.4c2.7,1.7,5.3,3.5,7.7,5.6c0.7-2.7,1.4-5.4,2.4-7.9c3-7.7,6.4-15.2,9.9-22.6c3-6.4,5.5-13.2,9.6-18.8
		c5-7,11.1-13.3,17.1-19.5c5.3-5.5,11.7-10.1,16.7-15.8c3.9-4.3,7.7-9.4,9.3-14.9c1.9-6.6,2.3-13.8,2-20.7c-0.3-5.8-1.8-11.7-4-17
		c-2.8-6.4-6.4-12.6-10.6-18.2c-3.5-4.6-7.9-8.9-12.7-12.2c-7.8-5.4-17-8.1-26.3-9.1c-8.2-0.9-16.6-0.7-24.2,4.4
		c-2.5,1.6-6.5,2.4-9.3,1.7c-8.6-2.2-16.9-5.5-25.4-8c-6.1-1.8-12.4-3.9-18.7-4.2c-10.4-0.5-20.7,1.2-30.3,6.1
		c-12.1,6.3-20.8,15.4-25.6,28.5c-0.9-0.6-2-1.3-3-2c-5.5-3.6-10.6-7.8-16.5-10.7c-9.2-4.5-18.8-6.4-29.4-5.8
		c-10.7,0.6-18.8,5.4-26.9,11.2c-8.2,5.9-14.7,13.2-20,21.8c-5.8,9.3-7,18.5-1.9,28.3c3.2,6.2,7.2,12.1,10.2,18.4
		c3.3,6.9,5.7,14.1,8.8,21.1c2.3,5.3,4.9,10.4,7.7,15.5c2,3.6,6.8,5.4,6.9,10.5c0,0.8,3.3,1.6,5.1,2.1c0.9,0.3,2.6-0.3,2.9,0.1
		c1.5,2.3,3.2,4.6,3.7,7.2c1.3,7.1,1.9,14.4,3,21.5c0.1,0.7,0.2,1.4,0.3,2.1c3.9,0.1,7.9,0.4,11.8,0.7
		C314.7,404,314.2,402.9,313.9,401.7z M303.1,363.7c-2.7,2-4.3,1.3-6.9-0.8c-6.6-5.1-8.7-12.8-12.6-19.5c-3.8-6.5-7-13.4-10.6-20
		c-0.5-0.9-2.1-1.3-3.1-1.9c0.2-0.2,0.4-0.5,0.7-0.7c-0.9-1.9-1.5-4-2.6-5.7c-4.7-7.3-9.1-14.9-9.7-23.6c-0.2-3.4,2.6-7.2,4.5-10.6
		c5.1-9.2,12.8-16,21.1-22c4.5-3.3,9.8-6.2,16-5c0.5,0.1,1-0.1,1.5-0.2c8.8-3.5,17.7-2.4,25.5,1.9c8.5,4.7,16.4,10.7,24.2,16.6
		c2.1,1.6,3.7,4.6,4.4,7.2c0.9,3.4,3,3.9,4.8,4.1c2.3-1.8,4.1-3,5.5-4.5c0.7-0.7,1.1-2.2,0.8-3c-3.2-7.9-1.3-15.1,1.8-22.6
		c3.8-9.3,12.4-12,20.4-15c5.7-2.1,12.2-2.8,18.4-2.7c5.4,0.1,10.9,2,16.2,3.7c9.1,2.8,18.3,5.8,27.2,9.3c3.1,1.2,6,3.7,8.2,6.3
		c4.1,4.8,9,4.6,11.6-1.2c0.5-1.2-0.4-3.7-1.4-4.8c-2.3-2.4-1.1-4.4,1-4.9c4.8-1.1,9.9-2.2,14.7-1.8c5,0.4,10,2,14.8,3.8
		c8.2,3.1,15.2,8.1,19.6,16c3.6,6.5,8.4,12.6,10.5,19.5c2,6.5,1.6,14,1.4,21c-0.1,3.9-1.9,7.7-3.2,11.5c-2.3,6.4-7,10.8-12.3,14.5
		c-3.6,2.6-7.1,5.4-11,7.5c-2.7,1.5-5.8,2.6-8.8,2.7c-11.3,0.6-22.7,0.5-34,1.2c-10.2,0.6-20.5,1.7-30.7,3
		c-14.9,1.8-29.8,3.6-44.6,6c-18.7,3.1-37.4,6.7-56,10.3c-6,1.1-11.8,2.8-17.7,4.1c-1.7,0.4-3.6,0-5.4,0.1
		C305.7,363.4,304,363,303.1,363.7z"/>
	<path d="M657.3,603.5c-5.2,3.1-11.7,3.6-16.9,7.6c-3.7,2.8-8.9,3.6-13.4,5.5c-11.7,5.2-23.3,10.5-35,15.7
		c-10.3,4.6-20.7,8.8-30.9,13.6c-9.9,4.7-19.6,9.9-29.3,15c-10.2,5.3-20.4,10.7-30.6,16.1c-2.3,1.2-4.3,2.9-7.3,5
		c-0.8-4.9-1.4-9.2-2.3-13.4c-2.3-10.5-5-20.9-6.9-31.5c-1-5.6-0.2-11.7-9.6-12.1c5.7-4.8,10.2-8.9,15-12.6
		c3.2-2.4,7.3-3.8,10.2-6.5c5.6-5.2,10.8-11,16-16.7c3-3.3,5.7-7,8.6-10.5c0.5,0.2,0.9,0.4,1.4,0.6c-0.9,4.4-1.5,8.9-2.9,13.1
		c-1.8,5.4-4.3,10.5-10.6,12.5c-1.7,0.6-4,2.7-4.2,4.3c-0.5,4,5.1,9.4,9.8,6.2c0.8-0.6,2-0.4,2.9-0.8c2.3-1.1,5.1-1.9,6.6-3.6
		c2.3-2.6,4.1-5.8,5.5-9.1c0.8-1.8,0.4-4.2,0.5-6.3c0.1-2-0.1-4,0.4-5.9c1.5-6.2,3.5-12.2,5-18.4c1-4.2,1.4-8.5,2.5-12.7
		c0.4-1.5,1.8-2.7,2.7-4c1.2-1.7,3.3-3.4,3.3-5.1c0-1.5-2.3-3-3.6-4.6c-0.3,0.1-0.7,0.3-1,0.4c0.3-1.9,0.7-3.8,1-5.7
		c1.1-6.6,2.4-13.3,0.6-20c-1.4-5-3-10-4-15.1c-2.5-12.8-8.1-24.3-13.1-36.2c-2-4.7-5.2-8.9-4.5-14.5c0.8-6.6-3.7-11.3-6.4-16.5
		c-2.6-5-5.1-10.6-11-13c-2.5-1-4.8-2.5-7.4-3.1c-3-0.7-4.2,1.6-3.4,4.1c0.6,1.7,2.1,3.6,3.6,4.5c4.7,2.4,8.3,5.6,10.4,11.6
		c-2.5-0.8-4.4-1.1-5.9-2c-9.6-5.7-19.1-11.6-28.7-17.3c-2-1.2-3.4-2.6-2.7-5.1c0.5-1.9,0.9-3.7,1.4-5.6c-2.4-2.1-5-3.9-7.7-5.6
		c-1.1,2.9-2.1,5.8-3.2,8.8c-2.3-1.5-4.8-2.9-7-4.6c-10.1-7.6-22-10.3-34.1-11.8c-7.5-0.9-15.2,0-22.8,0.4c-5.4,0.3-11.1,0-16,1.8
		c-6.1,2.3-11.5,1.6-17.4,0c-4.6-1.3-9.3-2.5-14.1-3.1c-1.9-0.3-4,1.4-6,1.6c-3,0.3-6,0.1-9,0.2c-5.1,0.2-9.7,1.2-12.6,6.2
		c0.2,0,0.3,0,0.5,0c-0.2,0-0.3,0-0.5,0c0,0,0,0,0,0c-0.9,1.6-3.5,2.3-5.9,3.7c-0.6-1.3-1.2-2.6-1.8-4c-3.9-0.2-7.8-0.5-11.8-0.7
		c0.6,3.4,1.4,6.8,2.2,10.9c-3.6-1.1-6.7-1.3-8.9-2.9c-2.7-1.9-5.2-2.2-8.2-1.3c-2.8,0.8-5.7,1.3-8.4,2.4c-3.2,1.4-6.5,2.9-7.7,6.8
		c-0.8,2.5-1.5,5.5-3.3,7.2c-4.2,4-8.8,7.5-13.6,10.8c-8.4,5.8-16.2,12.2-22.5,20.1c-7.1,8.9-10.2,18.6-6.1,29.8
		c0.3,0.9-0.5,2.6-1.2,3.5c-5.4,6.5-10.5,13.1-11.9,21.8c-1,6.1-1.9,12.2-2.6,18.3c-0.5,4.2-1,8.4-0.9,12.5
		c0.1,6.8,4.2,11.4,9.1,15.4c3.7,3,7,6.4,5,11.7c-0.9,2.4-2.6,4.7-4.4,6.6c-3.3,3.4-3.9,7.9-1.1,11.3c1.6,2,3.3,2.5,5.4,0.6
		c1.5-1.4,3.2-2.6,5.3-4.2c0.4,0.7,0.7,1.2,0.9,1.6c2.6,5.8,5.6,11.5,7.8,17.4c0.8,2.2,1.6,5-0.5,7.8c-1.1,1.5-0.8,5.2,0.3,6.9
		c1.1,1.6,4.2,2.6,6.4,2.5c1.3,0,3.5-2.3,3.8-3.9c0.6-3.4,0.5-7,0-10.4c-0.9-5.3-2.4-10.4-3.9-16.8c4.7,6.8,8.7,12.6,12.8,18.3
		c7,9.6,16.4,16.6,25.9,23.5c4.1,3,8.3,5.8,12.8,8.3c9.1,5.1,18,10.7,27.6,14.7c6,2.5,8.5,8.5,13.9,11.1c0.3,0.1,0.3,1,0.4,1.5
		c1.9,8.1,6.7,12,14.8,12.3c1.2,0,2.9,0.5,3.3,1.2c1.8,3.8,4.8,4,8.5,4.1c3.9,0.1,9.6-2.8,10.8,4.6c2.4-0.1,4.7-0.1,6.8-0.4
		c2.8-0.4,5.7-1.9,8.5-1.6c7.5,0.7,13.2-2.7,19-6.7c1.3-0.9,3.3-0.9,5.1-1c2.5-0.2,5.2,0.4,7.5-0.4c2.5-0.8,4.5-3.3,7-4.2
		c4.4-1.5,7.4-4.4,9.9-8c1.3-1.8,1.9-3.4,0.2-5.7c-2.5-3.3-0.4-8.1,3.3-9.4c0.7-0.3,1.5-1.1,1.8-1.8c2.3-4.7,4.8-9,9.9-11.7
		c6.3-3.4,12-7.8,18.1-11.8c2.2,8.5,4.6,16.7,6.4,25.1c2.3,10.8,4.7,21.7,6,32.7c1.6,13.9,2.5,27.8,3.1,41.8
		c0.6,16.7,1,33.5,0.6,50.2c-0.3,13.2-1.6,26.3-2.9,39.4c-0.8,7.7-2.7,15.2-3.8,22.8c-0.8,5.2-4.8,10.7-10,11.8
		c-4.6,1-9.4,2.1-14.1,1.7c-10.2-0.7-20.3-2.4-30.4-3.6c-8.6-1-17.2-2-25.8-3.1c-10.8-1.4-21.7-2.7-32.4-4.8
		c-7.6-1.4-14.9-4.1-22.3-6.1c-9-2.4-17.9-4.9-27-6.9c-4.9-1-11.9,6.2-11,11.2c1.3,7.5,2.9,15,4.5,22.4c1,4.7,2.7,9.2,3.5,13.9
		c1.9,10.2,3.5,20.5,5.1,30.8c1.1,7,2.1,14,3.1,21c0.7,5,1.1,10.1,2.1,15c1.1,5.3,2.5,10.5,4.2,15.6c1.9,5.7,4.2,11.3,6.4,16.9
		c3,8,5.8,16,9.3,23.8c0.9,2.1,4.1,4.6,6,4.4c5.9-0.5,9.2-7.7,6.6-13c-0.3-0.7-0.4-1.5-0.5-2.3c-0.8-7.4-1.8-14.9-2.4-22.3
		c-1.1-14.1-2-28.2-2.9-42.3c-0.6-10.1-1.1-20.3-1.6-30.4c-0.4-7.6-0.9-15.1-1.3-22.7c-0.4-6.2-0.7-12.4-1.2-18.5
		c-0.3-3.5-3-5-5.8-4.6c-1.8,0.3-4.4,2.2-4.9,3.9c-0.8,3.2-0.8,6.8-0.4,10.2c1.5,12.7,3.5,25.3,4.8,37.9c0.9,9.3,1.2,18.6,1.5,27.9
		c0.5,13.9,0.9,27.7,1.4,41.6c-0.6-1.3-1.4-2.6-2-4c-5.6-13.9-8.4-28.5-10.8-43.2l-6.9-43.2c-0.9-5.4-2.6-10.7-3.6-16.2
		c-1.1-6.2-1.9-12.4-2.6-18.7c-0.1-0.8,1.3-2.6,1.9-2.6c3.9,0.1,8,0.1,11.8,0.9c4.9,1,9.6,3,14.6,4.1c6.2,1.4,12.5,2.5,18.8,3.6
		c5.3,1,10.6,2,15.9,2.8c2.5,0.4,5.2,0.3,7.7,0.6c5.5,0.8,10.9,1.9,16.4,2.6c4.4,0.6,8.8,0.8,13.2,1.3c1.9,0.2,3.8,0.5,5.6,0.9
		c3.4,0.7,6.7,1.6,10,2.1c1.4,0.2,2.9-0.7,4.3-0.6c2.3,0.2,4.8,0.3,6.8,1.4c2.2,1.2,5.9-1.2,6.9,2.8c1.9,7.9,4.1,15.7,5.6,23.7
		c4.2,22.3,10.5,44.1,11.3,67c0.2,6.9,2.2,13.7,3.2,20.5c0.4,3,1.9,4.9,4.9,5.3c3.4,0.4,6.5-1.1,7.3-4.2c1.2-4.9,2.3-9.8,0-15.1
		c-2.4-5.4-4.2-11.3-3.8-17.5c0.8-12.7,1.7-25.5,2.2-38.2c0.5-12.2,0.7-24.4,0.9-36.6c0.1-6.6,0-13.2,0-19.6
		c5.9-1.2,10.2-4.9,10-8.2c-0.5-7.3-1.3-14.6-1.9-21.8c-0.1-0.8,0.5-1.7,0.7-2.6c0.4-1.4,1-2.7,1.1-4.1c0.9-15.2,1.9-30.4,2.6-45.6
		c0.7-12.8-0.8-25.7-0.3-38.6c0.3-7.1-1.9-14.2-2.6-21.3c-0.4-3.6-0.1-7.2-0.1-9.6c3.7-1.7,6.9-2.6,9.5-4.4c4-2.7,7.3-6.4,11.3-9
		c6.3-4,13-7.3,19.6-10.9c6.3-3.4,12.4-7.3,18.9-10.1c6.5-2.8,12-7.4,18.7-9.9c6.8-2.6,13.1-6.6,19.7-10
		c10.7-5.5,21.3-11.1,32.1-16.3c10.4-5.1,21-9.8,31.6-14.6c2.8-3.2,4-7.6,4.6-12.1C660.1,601.6,658.7,602.6,657.3,603.5z
		 M229.8,527.8c-1.8,7.4-2.5,15-3.7,22.6c-0.1,0.7-0.4,1.4-1,3.5c-2.1-2.8-4.3-4.6-4.9-6.8c-0.8-3.1-0.7-6.5-0.5-9.8
		c0.4-5.8,1.1-11.5,2-17.3c0.3-1.9,1.3-3.8,2-5.8C230.3,517.6,231.3,521.8,229.8,527.8z M520.3,480.5c3,7.1,5.7,13.5,8.8,20.8
		C520.7,497,518,490.4,520.3,480.5z M441.2,412c-4.9,2.2-33.2-1.5-36.6-4.7C408.9,405.2,433.1,405.5,441.2,412z M387,412.1
		c-4.8,3.6-6.1,3.4-8.2-1.3C381.2,411.2,383.7,411.6,387,412.1z M317.9,417.3c0.1-0.7,0.5-1.5,0.9-2.2c1.7-2.8,11.9-7.2,15.8-6.6
		c-5,3.6-9.6,7-14.3,10.4c-0.4,0.3-1.4,0.3-1.7,0.1C318.1,418.7,317.8,417.9,317.9,417.3z M295.9,421.2c-4.2,4.6-6.2,5-14.8,2.3
		C283.8,418.5,289.3,417.6,295.9,421.2z M234.6,480c-1.9-8.5,11.9-28.8,21.6-31c-0.5,1.9-0.8,3.5-1.4,4.9
		c-2.6,5.8-5.4,11.5-8.1,17.3c-0.5,1-0.6,2.3-1.1,3.3c-0.7,1.2-1.5,2.6-2.6,3.1C240.5,478.6,237.6,479.2,234.6,480z M428.9,643.6
		c-14.4,5.8-29,10.7-44.2,14.1c-7.3,1.6-12.1-0.4-17.6-4.2c-3-2.1-6.6-4.6-11-2.3c-0.6,0.3-1.5-0.1-2.5-0.2
		c0.8-4.6,1.6-8.5,2.3-12.5c0.1-0.9,0.2-2.1-0.2-2.7c-3.4-5.1-1.3-9.3,3-14.1c-3.7-1.2-6.5-2.1-9.7-3.1c0.1-0.3,0.4-1.3,0.8-2.1
		c1.4-2.5,2-4.7-0.9-6.9c-1-0.8-1.4-3.1-1.2-4.6c0.5-2.8,1.6-5.5-3.3-7.1c4.7-2.1,8.2-3.6,11.7-5.2c6.1,6.6,10.7-0.5,16-1.5
		c-0.1,0.5-0.3,0.9-0.4,1.4c1.9,1,3.8,2,5.8,3c0.5,0.2,1.1,0.2,1.5,0.5c3,2.5,6.4,4.8,9,7.7c1.6,1.8,2.7,1.8,4.3,0.9
		c1.9-1,3.6-2.1,5.5-3c1.9-0.9,3.6-1.6,6.1-0.3c2.4,1.2,5.8,0.3,9.6,0.3c-0.6,4.2-1.1,7.9-1.6,11.8c-0.8,0.2-1.9,0.8-2.8,0.6
		c-11.9-1.7-23.6,0.9-35.3,1.9c-5.9,0.5-7.1,4.4-3.3,9.2c0.2,0.3,0.5,0.6,0.6,1c1.9,9,8.9,14.4,15,20.1c3.5,3.3,9.1,2.9,13.6,1.3
		c9.5-3.4,17.7-8.7,21.7-18.6c0.9-2.2,1.9-4.5,2.8-6.7c0.2-0.5,0.8-1.2,0.8-1.2c1.8,1.1,3.8,2.1,5.2,3.5c0.5,0.6,0.3,2.9-0.4,3.5
		c-5.8,5-5.9,7.3-0.3,11.9C431.4,641.8,430.8,642.9,428.9,643.6z M410.6,587.5c1.1-1.7,1.8-4,3.4-5c0.9-0.5,3.1,1.1,4.7,1.8
		c0,0.5,0,1,0,1.5c-2.3,1-4.5,2.1-6.8,3.1C411.5,588.4,411.1,588,410.6,587.5z M408.8,631.9c-3.1,3.4-8,5.2-12.3,7.2
		c-2.7,1.3-5.5,0.4-7.3-2.2c-2.5-3.7-4.9-7.5-7.3-11.3c0.3-0.5,0.5-0.9,0.8-1.4c4.4-0.2,8.8-0.5,13.2-0.6c2.4,0,4.8,0.6,7.1,0.3
		c1.6-0.2,3.1-1.4,4.6-2.3c1.5-0.8,2.9-1.8,4.2-2.6C417.2,625.3,411.6,628.9,408.8,631.9z M465.6,622c-5.2,3.9-10.7,7.4-16.2,10.7
		c-0.7,0.4-2.9-0.4-3.6-1.3c-0.7-0.9-1-2.9-0.5-3.8c3-5.7,3.6-11.3,0.8-17.3c-0.7-1.6-0.1-3.9,0.3-5.8c0.8-3.9-0.7-7.4-4.4-7.2
		c-6.6,0.3-7.2-4.7-9.5-8.7c-2.2-3.9-4.8-7.6-7.5-11.3c-0.6-0.8-2.1-1.4-3.2-1.4c-5.7,0.1-11.5,0-17,1c-3.3,0.6-6,3.6-9.3,4.4
		c-2.8,0.7-6.7,0.7-9-0.8c-4.1-2.5-8.2-2.6-12.7-2.9c-9.5-0.5-18.4,1.8-27.4,4.6c-3.4,1.1-7.3,0.5-10.7,1.6c-2,0.7-3.6,2.9-5.3,4.7
		c-2.9,3-5.6,6.2-8.3,9.4c-1,1.2-2.2,2.9-2,4.1c0.8,5.2-1.4,10-2,14.9c-0.8,7,0.7,9.7,7.1,13c2.7,1.4,3.7,3.6,3.6,6.5
		c-0.3,5.1,0.9,9.2,6.6,10.7c0.7,0.2,1.1,1.6,1.6,2.5c-0.9,0.5-2,1.7-2.7,1.5c-2.6-0.7-5.2-1.7-7.7-2.9c-8.7-4.2-17.3-8.6-25.9-12.9
		c-1.9-0.9-3.5-2.2-5.2-3.5c-6.6-5-13.8-9.6-19.7-15.4c-6.1-5.9-11.3-12.7-16.3-19.6c-2.9-3.9-4.7-8.6-6.8-13.1
		c-0.7-1.6-0.7-3.5-1.1-5.3c-0.6-0.6-1.8-1.3-2.2-2.3c-4-10.7-7-21.6-7.1-33.1c-0.1-14.9,1.4-29.6,5.1-44c1.1-4.2,3.6-8,5.3-12
		c1.9-4.2,3.6-8.6,5.6-12.7c1.7-3.5,4.2-6.7,5.7-10.3c1.7-4.1,5.7-3.4,8.6-4.5c8.7-3.5,15.3-9.4,20.8-16.8c1.2-1.6,3-2.7,4.4-4.2
		c1.8-2,3.4-4.1,5.6-6.8c-0.6-1-1.8-2.9-3.1-4.9c2.5-1.3,4.4-5.7,8.6-2c0.3,0.3,2.5-1,3.3-1.9c0.8-0.9,0.9-2.4,1.5-4.1
		c2.1,2.6,2.2,4.9,1.2,7.5c-1.4,3.4-0.4,4,3.3,4.3c3.4,0.2,5.2-1.1,7.2-3.4c6.1-7,14.4-10.9,22.3-15.4c7.9-4.5,13.7-0.8,19.8,3.1
		c3.4,2.2,6.7,4.6,10.3,6.5c5.2,2.8,15.5,2.5,19.3-5.2c0.6-1.3,1.6-2.4,2.6-3.9c5.7,5.3,12.1,6.1,19.1,5.5c2.9-0.2,6,1.5,9.1,2.1
		c1.3,0.2,2.7-0.3,4.1-0.3c1.8,0,3.6,0.4,5.4,0.5c2.8,0.2,5.6,0,8.3,0.6c4.6,0.9,9,2.2,13.5,3.6c0.7,0.2,1.3,1.4,1.6,2.3
		c1,2.8,0.7,6.2,6,4.5c2.6-0.9,6.4,1.4,9.5,2.7c9,3.7,17.4,8.6,24.4,15.3c2.6,2.5,5.5,5.5,5.4,9.9c0,1.1,1.1,2.4,2.1,3.1
		c3.3,2.6,3.6,5.8,3.4,9.8c-0.3,8.6-3.1,17.7,1.9,25.5c3.1,5,7.5,9.4,12,13.2c3.4,2.9,5.6,5.7,5.7,10.1c0.1,8.6,0.4,17.2-0.1,25.7
		c-0.2,3.1-2.9,5.9-3.7,9c-2.6,10.8-8.9,19.1-16.8,26.6c-2.6,2.4-5.4,4.8-7.2,7.8c-4,6.9-9.8,11.5-16.4,15.5
		c-4.1,2.5-8.2,5.2-12,8.2C471.6,616.1,468.9,619.5,465.6,622z M332.8,612.9c-0.8,2.4-1.8,4.8-2.7,7.1c-0.7-0.2-1.3-0.5-2-0.7
		c0.8-2.5,1.6-5.1,2.5-7.6c0.1-0.3,1.1-0.5,1.4-0.3C332.4,611.7,332.9,612.5,332.8,612.9z M475,906.9c-0.4,0.1-0.9,0.1-1.3,0.2
		c-1.1-4.3-2.3-8.7-3.4-13c-1.7-6.8-3.5-13.6-4.9-20.5c-0.6-2.9-0.5-6-0.5-9c0-0.7,0.8-1.7,1.5-2c2.9-1.3,7.8,1.6,7.9,4.7
		c0.4,12.6,0.8,25.2,1.1,37.8C475.4,905.7,475.1,906.3,475,906.9z"/>
	<path fill="#FC686D" d="M807,504.6c-0.3-11.1-5.3-20.7-13-28.8c-4.2-4.4-11.1-6.1-15.9-3.3c-5.6,3.3-11.2,6.9-16.4,10.9
		c-4.5,3.6-8.5,7.8-12.6,11.9c-1.1,1.1-1.7,2.6-2.3,4c-1.5,3.6-3,7.2-4.3,10.9c-1.2,3.4-2.6,6.9-3.1,10.4c-0.5,3.6-1.9,6.4-4.5,8.9
		c-1.1,1.1-2.2,2.2-3.3,3.4c-6.6,7.3-13.3,14.5-19.9,21.9c-4.5,5-8.6,10.2-13.2,15.1c-4.2,4.5-7.2,10.7-14.5,11.5
		c-1.1,0.1-2,2.1-3.1,3.1c-0.7,0.8-1.4,1.7-2.3,2.3c-2.9,2-6.2,3.6-8.9,5.8c-3,2.4-5.7,5.4-8.6,7.9c-0.6,4.6-1.8,8.9-4.6,12.1
		c0.3-0.1,0.6-0.3,0.9-0.4c-2.8,3.6-6,6.6-9.3,9.6c-11.2,10.3-22.4,20.8-33.8,30.9c-4.7,4.2-6.9,9.3-3.9,12.5c2.5,2.8,5.7,5.1,9,7
		c1.1,0.7,4,0.1,5-0.9c5.3-5.9,10.2-12.2,15.3-18.3c3.1-3.6,6.3-7.1,9.6-10.5c4.6-4.8,9.4-9.5,14.1-14.2c1.4-1.4,2.9-2.7,4.3-4
		c1.9-1.7,3.8-3.4,5.7-5.1c0.4-1,2-0.8,2.6-1.5c5.1-5.7,13.7-6.5,18-13.3c0.3-0.5,1.1-0.7,1.6-1.2c2.4-2.4,5.1-4.5,7.2-7.2
		c3.1-3.9,5.7-8.3,8.8-12.3c2.5-3.2,5.3-6.2,8.3-8.9c5.6-5.3,10.8-11.1,18.1-14.4c6.4-2.9,12.7-6.2,18.9-9.5
		c8.5-4.6,16.2-10.4,25.6-13.4c9-2.8,17.2-7.4,20.7-17C805.2,515.4,807.2,509.9,807,504.6z M682,603.1c-1-2.2-2.2-3.8-1.8-4.3
		c0.8-1.2,2.4-1.9,3.6-2.7c0.4,0.4,0.9,0.9,1.3,1.3C684.3,599,683.4,600.5,682,603.1z M692.2,594.6c-1.6,0.3-3.2,0.7-5.3,1.2
		c0.2-1.1,0.3-2.5,0.4-2.5c1.7-0.1,3.3,0.1,5,0.1C692.3,593.7,692.3,594.1,692.2,594.6z M791.8,520.9c-4.4,5.7-11.3,7.7-17.4,10.9
		c-5.9,3.2-11.9,5.9-17.9,8.9c-5,2.5-10.2,4.7-14.8,7.7c-8.6,5.8-19,8.8-25.3,18.1c-3.1,4.5-7.8,7.9-11.8,11.8
		c-0.5-0.5-1.1-1-1.6-1.5c3.5-4.3,6.8-8.8,10.5-13c8.1-9.1,16.4-18,24.6-27.1c1-1.1,1.4-2.6,2.5-3.5c1.2-1,2.8-2,4.2-2
		c5,0,8.8-3.7,7.6-8.5c-1.6-6.6,1.3-11.7,4.3-17c4.6-8,12-13.5,18.4-19.8c2-2,4.8-3.2,7.3-4.4c2.4-1.2,8.1,2.3,9.7,6
		c2,4.9,4.2,9.8,5.3,15C798.9,509.5,795.9,515.5,791.8,520.9z"/>
	<path d="M168,861.8c5.9-4.8,11.5-9.5,17.2-13.9c6.1-4.7,12.4-9.3,18.9-13.4c1.6-1,4.8-0.2,6.9,0.7c0.6,0.3,0.6,3.9-0.2,5.5
		c-5.1,9.8-10.5,19.5-15.6,29.3c-1.8,3.5-2.9,7.5-4.7,12.2c3.4-1.1,5.5-1.9,7.7-2.5c7.6-2.2,12.9,1.4,15.4,7.4
		c0.9,2.1-0.1,5.2-0.6,7.8c-0.5,2.4-1.6,4.7-2.5,7c-0.8,2.2-1.7,4.3-2.4,6c5.2,1.3,10.8,1.7,15.3,4c10.4,5.4,21.6,10.4,28.9,19.9
		c5.2,6.7,8.7,14.7,11.1,23.3c2.6,9.5-0.1,18-3.7,26c-2.4,5.4-6.6,10.3-13.2,12.1c-3.1,0.9-6.1,2.2-8.9,3.7
		c-2.4,1.3-0.8,3.5,0.4,4.1c4.8,2.5,9.9,4.5,14.9,6.7c0.3,0.1,0.8,0.2,1.2,0c5.2-1.9,10.5-3.6,15.6-6c3.1-1.5,5.8-4,9.2-6.3
		c-1.4-1.3-2.5-2.3-3.6-3.3c-3.5-3.5-2.9-8.6,1.5-9.4c7.3-1.4,14.8-2,22.3-2.1c4.2-0.1,5.4,2.3,4.2,6.5c-1.1,3.8-2.7,7.4-3.9,11.2
		c-1.1,3.4-1.9,7-2.8,10.5c-0.5,2-0.4,4.3-3.5,4.1c-0.5,0-1.1,1.3-1.6,2c-2,2.5-5.2,2.4-6.3-0.6c-0.9-2.4-0.8-5.3-1-8
		c-0.1-1.1,0-2.2,0-3.8c-4,3.6-7.5,6.5-10.6,9.7c-1.6,1.6-2.4,4-3.5,6c-2.3,4.4-5.7,7.1-10.8,6.2c-2-0.3-4.1-1.5-5.5-3
		c-2.6-2.7-4.7-5.6-8.9-6.1c-2.3-0.3-4.6-1.8-6.8-2.9c-4.5-2.2-9-4.4-13.5-6.7c-0.7-0.3-1.7-0.6-2-1.1c-2.7-5.9-7.1-2.4-10.4-1.4
		c-3.2,0.9-5.7,3.4-6.3,7.3c-0.8,4.6-2.2,9.1-3.3,13.6c-0.3,1.2-0.4,2.5-0.6,3.9c2.8,0.7,5.4,1,7.8,1.9c2.8,1,4.4,2.8,3.2,6.1
		c-1.6,4.2-5.3,6.6-9.9,6.5c-1.5-0.1-3.1,0.4-4.6,0.8c-5,1.5-9.2-2.3-8.1-7.3c0.3-1.7,0.4-3.5,0.7-5.5c-6.7,2.9-10.1,0.6-10.9-6.5
		c-0.3-2.2-1-4.4-1.5-6.6c-0.5,0-1,0-1.5,0.1c-0.5,4-1.1,7.9-1.4,11.9c-0.1,0.7,0.9,1.7,1.7,2.2c1.4,1,3,1.7,4.3,2.8
		c0.9,0.7,1.7,1.7,2,2.8c0.4,1.6-6.4,8-8.1,8.2c-2.2,0.3-4.6,0.6-6.5,1.5c-3.4,1.6-6.7,0.1-6.8-4c-0.1-2.7,1.2-5.3,1.6-8
		c1-6.9,1.9-13.7,2.9-20.6c0.5-3.1,0.5-6.5,2-9.1c1.3-2.3,0.5-3-1-3.8c-6.9-3.7-13.8-7.4-20.8-11c-2.3-1.2-4.6-2.2-7-3.1
		c-5.7-2.1-9.6-6.2-13.8-10.4c-3.8-3.9-6.4-7.7-6.1-12.9c0.1-2.7,1.9-5.3,2.6-8c2.7-11.1,10.2-18.8,18.8-25.4
		c3-2.3,6.7-3.9,10.2-5.6c8.7-4.2,8.9-6.6,5.2-15.5c-3.4-8.3-8.2-15.7-12.8-23.2c-4.1-6.5-9.6-12.1-14.6-18
		c-2.6-3.1-5.1-6.5-8.4-8.8c-5.9-4.3-10.7-10.2-18.1-12.5c-2.5-0.8-4.7-3.2-6.3-5.4c-0.8-1.1-0.5-3.8,0.4-5c0.9-1.2,3.7-2.3,4.7-1.7
		c9.4,5.1,20.1,2.4,29.8,4.9c7,1.8,14.2,3.6,20.8,6.5c6,2.7,11.4,6.9,14.1,13.4C166.5,860.3,167.1,860.7,168,861.8z M253,958.2
		c-1-2.9-1.8-5.8-2.9-8.6c-3.2-9-6.9-17.5-16.8-21.3c-6.8-2.6-12.5-7.9-20-9c-7.7-1.1-15.1-1.3-21.1,5.3c-2.7,2.9-6.4,4.7-10.8,2.6
		c-0.6-0.3-1.3-0.5-1.9-0.3c-7.5,2.2-15.1,3.9-22.3,6.8c-10.3,4.2-18.6,11-23.8,21.3c-3.6,7.2-4.1,9.1,1.6,14.5
		c4.2,4,9.2,7.4,14.3,10.3c5.5,3.1,11.5,5.2,17.2,7.9c9.3,4.4,15.8,11.6,20.3,20.7c1,2.1,2.3,3,4.1,0.7c2.2-2.9,4.1-6.1,6.6-8.8
		c2.9-3,5.9-6.8,9.6-7.8c11.3-3.3,23-5.4,34.4-8.4c2.2-0.6,5.1-2.4,5.8-4.3C249.9,972.9,255.2,966.5,253,958.2z M156.8,888.7
		c0.7-0.9,1.2-1.3,1.3-1.7c0.7-6.1,2.3-12.4,1.7-18.4c-0.4-4.2-3-9-6.1-11.8c-7.5-6.7-16.7-9.9-26.8-10.3c-3-0.1-6.1,0-9.1,0
		c-0.1,0.3-0.3,0.6-0.4,0.9C132.9,858.6,143.3,874.9,156.8,888.7z M194.7,852.1c-0.2-0.1-0.4-0.3-0.6-0.4c-2.8,2.1-5.8,4.1-8.3,6.5
		c-4.8,4.5-10.8,8-13.1,14.9c-0.7,2.1-2.7,3.9-4,5.8c-0.4,0.5-0.8,1.1-0.8,1.7c0.1,4.1,0.4,8.1,0.5,12.2c0,2.8,0.3,5.8-0.6,8.3
		c-1.5,4.1-2.5,7.6-0.3,11.9c2.4,4.7,3.6,5.3,8.3,1.7c-2.4-5.7-0.2-11.3,1-16.9c1.1-4.8,3-9.4,4.7-14.1c2.2-6.1,4.5-12.3,7-18.3
		C190.3,860.8,192.6,856.5,194.7,852.1z M203.1,888.8c-8.3,0.5-16.7,10.9-15.5,19.1c0.4,2.9,3,4.6,5.2,2.8c3.1-2.5,6.5-5.2,8.3-8.6
		C203.1,898.2,205.9,893.8,203.1,888.8z"/>
	<path d="M640,896.2c-4.2-0.3-4.7-4.6-5.4-9.1c-2.9,1.5-5.7,2.4-7.9,4.1c-4.1,3.1-7.8,6.8-11.7,10.1c-1.3,1.1-2.8,2-4,3.1
		c-3.1,3.1-5.4,6.2-6.2,11c-1.2,7-11.7,11.6-18.7,9.3c-0.9-0.3-2.4,0-3.1,0.6c-7.4,6.6-14.7,13.6-18.4,22.9c-2,5-1.7,10.9-2.5,16.4
		c0.4,0.3,0.9,0.6,1.3,0.8c2-1.2,4-2.5,6-3.6c11.4-5.9,22.9-11.5,34.2-17.6c2.7-1.4,5.1-3.7,7.1-6.1c3.7-4.4,7.5-6.3,13.4-4.1
		c3,1.1,6.5,0.6,9.7,1.3c2.9,0.5,5.7,1.5,8.5,2.4c2.8,0.9,5.2,1.7,7.4-1.9c3.9-6.6,8.6-12.8,12.8-19.3c3.2-5,5.8-10.3,9.2-15.1
		c5.7-7.9,11.8-15.4,17.8-23.1c1.2-1.5,3.2-2.6,4-4.3c1.5-3.2,4.4-3.5,7.1-4.4c0.9-0.3,2.7,0.2,3.2,1c1.3,1.9,3.4,4.5,2.9,6.2
		c-1.9,6.5-4.8,12.7-7.1,19c-0.3,0.9,0.1,2.4,0.6,3.2c0.2,0.4,1.9,0,2.8-0.3c9.5-3.3,19.2-3.9,28.7-0.9c7.5,2.3,8.7,8.1,3,13.8
		c-6.1,6.1-13,11.4-19.8,17.4c0.2,0.2,0.7,1.1,1.4,1.8c8.8,8.6,5.3,18.2-3,23.8c-10.5,7.1-22.7,9.1-35,10c-3.1,0.2-6.3-0.3-9.4-0.2
		c-1.4,0.1-2.9,0.7-4,1.5c-2.7,1.8-5.2,2.9-7.7-1.1c-2.4,4-4.4,7.5-6.6,10.9c-0.8,1.3-2,2.5-3.3,3.3c-6.7,4.5-13.6,8.7-21.5,11.1
		c-5,1.5-9.3,5-14.1,7.2c-3.2,1.5-6.7,2-9.9,3.4c-1.2,0.5-2.1,2.1-2.9,3.3c-0.3,0.5-0.1,1.3-0.1,2c0,8.4,0,8.3,8.2,8.7
		c2,0.1,4.1,0.4,5.7,1.3c0.9,0.5,1.6,2.9,1.1,3.7c-2.4,3.9-5.1,7.6-7.8,11.3c-0.4,0.5-1,0.8-2.1,1.5c-0.3-2-0.6-3.6-0.8-4.7
		c-4.8-0.7-9.2-1.4-14.4-2.2c-1.5,1.6-3.7,3.1-7.5,1.9c-1.9-0.6-4.6,1.9-7.1,2.6c-2.1,0.6-5.3,1.7-6.4,0.8c-1.8-1.5-2.7-4.5-3.1-6.9
		c-0.7-4.1-0.6-8.4-0.9-13c-4.9,0.9-9.6,1.6-14.3,2.5c-2.4,0.5-4.7,1.2-7.1,1.8c-11.8,3-23.8,5.7-35.5,9c-2.7,0.8-5.2,2.7-7.9,0.7
		c-1.7-1.2-4.1-2.8-4.3-4.4c-0.3-2.3,0.3-5.8,1.8-7.1c9-7.4,18.3-14.5,27.7-21.4c8.4-6.2,17.3-11.8,25.7-18c1.4-1,2-3.5,2.3-5.5
		c0.5-3.4,0.3-6.8,0.8-10.2c1.7-11.5,8.2-20.5,15.4-29c2.8-3.3,6-6.3,8.7-9.7c1.6-2,3-4.3,4.1-6.7c1.8-4.1,4.5-6.7,8.8-8.4
		c5.1-2.1,9.8-5.4,14.6-8.3c5-3,9.9-6,14.8-9.1c5.3-3.4,10.5-6.8,15.8-10.3c-0.1-0.4-0.2-0.7-0.3-1.1c-1,0.1-2,0.2-3,0.4
		c-2.7,0.6-5.4-0.5-5.8-2.8c-0.4-2.2,0.5-5.8,2.1-6.9c4.2-2.8,8.7-5.2,14.4-4.2c2.9,0.5,6-0.6,9-0.7c5.9-0.2,9.6,4.7,7.1,9.9
		c-3.3,7-7.3,13.6-11,20.4c-0.3,0.6-1.2,1-1.8,1.4C644.2,894.1,642.6,894.9,640,896.2z M631.6,975.2c5.5-2.1,10.3-5.4,12.6-11.6
		c0.7-1.8,1.9-3.4,3-4.9c1.6-2.2,1.7-4.4,0.1-6.6c-5-7-18.8-11.2-26.5-8c-0.7,0.3-1,1.4-1.6,2c-2.1,2.2-3.6,5-7.3,5.5
		c-4.3,0.5-8.7,1.4-12.6,3.1c-5.6,2.3-10.8,5.5-16.2,8.4c-4.8,2.6-9.5,5.6-14.4,7.8c-4.7,2.1-6.4,8.6-12.7,8.3
		c-9.2,6.3-18.4,12.7-27.7,19c-0.9,0.6-1.8,1.1-2.6,1.7c-3.6,2.7-7.1,5.4-10.7,8c0.2,0.3,0.4,0.7,0.6,1c1.4,0,2.9,0.3,4.2,0
		c6-1.4,11.9-3.6,18-4.2c11-1.1,21.6-3.5,31.9-7.4c1.6-0.6,3.2-1.4,4.8-1.6c9.1-1.1,18.1-2.1,26.5-6.7c-4.6-6.8-6.3-14.1-6-21.9
		c0.1-3.5,2-4.9,5.1-5.5c3.3-0.7,5.6,0.7,6.5,3.7c1.8,6.6,3.2,13.3,4.8,20.2c3.2,0,6.7-1.8,6.6-4.8c-0.1-4.6-1.1-9.8-3.5-13.5
		c-2-3.1-2.2-5.4-1.5-8.6c0.8-3.6,3.6-4.7,6.3-4.7c1.6,0,3.9,2,4.7,3.6C626.9,963.1,629.1,969,631.6,975.2z M692.3,887.5
		c-0.4-0.2-0.8-0.5-1.3-0.7c-2.9,3.7-6.1,7.2-8.7,11.1c-6.2,9.5-12.2,19.1-17.9,28.8c-3,5.2-5.1,10.9-7.6,16.4
		c-0.3,0.7,2.6,10.3,3.2,10.7c0.2,0.1,0.5,0.2,0.7,0.3c7.3,1.8,14.6,4,22.1,2.3c6.6-1.5,13.1-3.6,19.6-5.7c2.4-0.8,5.1-1.9,6.6-3.8
		c1.5-1.8,3-5.2,2.3-6.8c-1-1.9-4.4-3.8-6.6-3.7c-4.9,0.2-9.8,1.6-14.7,2.8c-2.6,0.6-4.8,0.7-6.1-2c-1.2-2.6-0.5-4.9,1.8-6.6
		c0.7-0.5,1.5-1.2,2.4-1.4c4.1-1.1,8.2-2,12.2-3.1c2.1-0.6,4.4-1.1,6.3-2.1c3.8-2.2,7.6-4.5,11.1-7.2c3.7-2.8,7-6.1,10.4-9.2
		c-0.2-0.5-0.4-1-0.5-1.5c-1.5-0.4-3.1-1.1-4.6-1c-2.7,0.1-5.4,0.8-8,1.2c-5.9,1.1-11.8,2.3-16.2,7c-2.6,2.8-7.6,2.1-8.2-1.4
		c-0.8-4.4-0.2-9.2,0.2-13.8C690.8,894.4,691.7,890.9,692.3,887.5z M582.3,1015.6c0.5,0.1,0.7,0.2,0.8,0.1c1.8-0.5,5-1.1,5-1.7
		c0.1-3.3-0.6-6.7-1.1-10.1c0-0.1-0.7-0.3-1.1-0.3c-3.5,0.8-6.9,1.6-10.4,2.6c-0.5,0.1-1,1-1,1.5c0,2.8,0.2,5.5,0.4,8.2
		c1.9-0.2,3.9-0.4,5.8-0.6C581.4,1015.5,582.1,1015.6,582.3,1015.6z"/>
	<path d="M1368.7,1053.5c-4,0.8-7.6,1.5-11.2,2.2c-3.5,0.8-6.2-0.5-6.6-3.2c-0.8-5.2,0.7-7.9,4.7-8.2c4.4-0.4,5.3-1.7,4-5.8
		c-1.2-3.6-2.4-7.3-3.9-10.8c-0.4-0.9-2-1.7-3.2-1.8c-4.7-0.6-9.5-1-14.4-1.5c-0.6,5.5,0.7,9.4,3.4,12.8c3.3,4.3,0.7,11.2-4.7,12.2
		c-2.6,0.5-5.2,1-7.7,1.7c-3.5,1-6.1-0.3-6.9-3.5c-1.3-5,0.2-8.4,3.9-9.2c0.9-0.2,1.8-0.2,3.3-0.4c-1.1-4.3-1.7-8.5-3.3-12.3
		c-1.4-3.5-5.4-2.9-8.1-2.4c-9.8,1.9-19.5,0.3-29.2-0.2c-6.8-0.3-13.6-1.8-20.4-2.9c-1-0.2-1.9-0.9-2.7-1.6
		c-6-5.2-11.9-10.4-17.9-15.5c-0.7-0.6-2-0.9-2.8-0.6c-4.9,1.7-9.7,4.2-14.7,5.1c-7.8,1.4-15.8,1.9-23.8,2.5
		c-1.5,0.1-3.1-1.3-4.7-1.7c-2.3-0.6-4.7-1.1-7.1-1.1c-4.6-0.1-8.5-1.8-11-5.5c-1.7-2.5-2.9-5.3-4.1-8.1
		c-4.6-10.5-8.3-21.4-15.3-30.8c-0.4-0.5-1-0.8-2-1.6c-1.3,3.8-2.1,7.3-3.6,10.5c-1,2-2.8,4.4-4.7,4.9c-2.3,0.6-5.3-3.9-4.9-7.1
		c0.7-4.8,1.9-9.5,2.8-14.3c0.8-4.4,1.6-8.8,2.4-13.2c0.2-1.2,0-2.4,0.3-3.6c1-5,2.9-6.3,7.7-4.7c5.2,1.7,10.3,3.9,15.6,5.5
		c2.6,0.8,5.4,1,8.1,0.9c2.4,0,4.5,0.6,4.8,2.9c0.2,1.3-1.3,2.9-2.6,4.1c0,0.3-0.2,0.6,0,0.7c1.7,1.5,3.3,3.7,1.1,5.2
		c-1.2,0.8-4.1-0.3-6-1c-4.7-1.6-9.2-3.6-14-5.4c-0.1,7.9,1.3,14.3,5.6,19.8c0.7,0.9,1.3,1.9,2,2.8c2.8,4,6.1,7.8,8.4,12.2
		c2.3,4.4,6.4,5.7,10.4,7.1c4,1.5,6,4.3,5.8,8.2c-0.2,4.1,2,5.1,5.3,5.3c8.4,0.6,16.5-1,24.2-4.3c7.8-3.3,7.6-3.5,3.8-11.3
		c-3.8-7.7-8-15.4-10.6-23.5c-2.6-8.1,0.2-16,5.9-22.3c1.9-2.1,4.6-4.3,8.3-1.8c1.1,0.8,3.9-0.5,5.7-1.3c4.4-2,8.6-4.2,12.9-6.3
		c2.7-1.3,5.3-3,8.1-3.9c6.5-2,13.1-3.8,19.8-5.2c6.9-1.5,14-2.4,21-3.5c0.4-0.1,0.8-0.1,1.2-0.1c6.8,1.2,13.1-1.7,19.7-2.5
		c5.5-0.7,11.2-0.4,16.8-0.3c6.4,0.1,12.9,0.1,19.3,0.7c9.8,1,19.5,2.4,29.3,3.7c1,0.1,1.8,1.1,2.8,1.4c1.8,0.7,3.5,1.1,4.7-1.3
		c1.3-2.6,3.6-3.2,6.4-2.3c2.6,0.9,3.4,2.7,3.7,5.4c0.1,1.6,1.1,3.4,2.3,4.4c2.8,2.4,6,4.3,9.1,6.3c7.5,4.9,14.3,10.6,18.6,18.7
		c5,9.4,9.5,19,8.1,30.1c-0.4,3.5-0.2,7.2-1.2,10.5c-1.3,4.5-3.6,8.6-8,11.1c-2.1,1.2-3.5,3.8-5.7,4.8c-4.1,1.9-8.5,3.4-12.9,4.5
		c-8.4,2.1-17.1,3.3-25.4,5.8c-6,1.8-11.9,1.1-17.9,1.7c-3,0.3-6,0.7-8.8,1.6c-0.9,0.3-1.8,2.6-1.5,3.7c1.3,5.8,2.5,11.6,6.1,16.5
		c1.8,2.4,3.3,5-1.1,6.8C1369.9,1050.6,1369.3,1052.6,1368.7,1053.5z M1401,937.7c0.2,1.2,0.8,2.3,0.5,3.2c-1.7,6-0.4,13.5-8.1,16.6
		c-1.1,0.5-2.7,1.7-3.2,1.3c-1.1-0.7-2.1-2.2-2.5-3.6c-2.4-7.2-4.3-14.6-7.1-21.6c-1.1-2.7-3.7-5.7-6.3-6.5
		c-4.4-1.4-9.3-1.3-14.2-1.8c-0.6,3.9-0.9,7.1-1.6,10.4c-1.5,7.4-3.2,14.9-4.8,22.3c-0.4,1.8-7,7.4-8.6,7.1
		c-0.7-0.1-1.5-0.7-1.8-1.3c-1.2-2-2.1-4.1-3.2-6.2c-4.2-8.3-8.5-16.5-12.5-24.9c-0.6-1.3-0.8-3.1-0.5-4.5c0.6-2.4-0.4-3-2.4-2.8
		c-6.7,0.8-13.4,1.6-20,2.7c-0.9,0.1-2.3,2.2-2,2.8c1.6,3.6,1,6.5-1.2,9.6c-0.9,1.3-0.9,3.3-0.9,5c0.1,4.2,0.4,8.5,0.7,12.7
		c0.1,1.5-5.4,8.1-6.9,7.9c-0.9-0.1-2.1-0.6-2.6-1.3c-2.6-3.6-4.8-7.5-7.5-11.1c-3.1-4.3-5.7-9.2-11.4-11.1
		c-1.2-0.4-1.5-3.1-2.6-4.5c-0.6-0.8-2.1-2-2.6-1.7c-4.8,2.2-9.6,4.6-14.3,7.1c-4.3,2.3-8.5,5-12.9,7.3c-6.5,3.4-8.1,6.7-6.1,12.9
		c1.9,6.2,2.4,13,8.3,17.3c0.5,0.4,0.5,1.5,0.9,2.2c1.6,2.5,2.9,5.2,4.8,7.4c3.2,3.6,7.3,6.6,10,10.5c3.2,4.8,7.6,7.8,12.4,9.8
		c11.1,4.7,23.1,4.4,34.9,4.7c13.3,0.3,26.6-1.1,39.9,0.9c1.4,0.2,2.9,0.4,4.2,0.2c9.4-1.2,18.8-2.3,28.2-3.7
		c12.9-2,25.8-3.7,38.1-8.4c4.6-1.8,9.8-2.6,13.8-5.3c5.9-3.9,7.7-10.4,7.4-17.4c-0.6-13.8-6.4-25.3-15.8-35
		c-3.2-3.3-8-4.9-11.7-7.7C1406.9,937.1,1404.5,935.9,1401,937.7z M1331.9,924.8c1.6,2.1,3,3.7,4,5.5c2.9,5.4,5.6,10.9,8.5,16.4
		c0.4,0.7,1.1,1.3,1.8,1.7c0.3,0.1,1.3-0.5,1.4-1c1.2-6.7,3.7-13.3,1.1-20.1c-0.3-0.8-1.4-1.7-2.2-1.7
		C1341.9,925.1,1337.2,925,1331.9,924.8z M1294,929.8c-5,0.9-9,1.5-12.9,2.4c-0.6,0.1-1.5,2.3-1.2,2.7c2.3,3,4.7,6,7.3,8.7
		c0.5,0.5,3,0.1,3.2-0.4C1291.7,939,1292.7,934.8,1294,929.8z M1392.3,938.4c0.6,0,1.2,0.1,1.8,0.1c0.1-1.9,0.4-3.8,0.3-5.7
		c0-0.5-1.2-1.2-1.9-1.3c-0.4,0-1.3,1.2-1.2,1.8C1391.3,935,1391.9,936.7,1392.3,938.4z"/>
	<path d="M1820.6,940.1c1.3,0.4,2.4,2,3,3.3c0.2,0.4-1.8,1.6-2.5,2.6c-0.9,1.2-1.6,2.6-3,4.8c-4.3-1.3-8.8-2.7-13.9-4.2
		c0.4,1.8,0.6,3.8,1.4,5.6c1.8,4.3,3.3,9,6,12.7c3,4.1,7,7.5,10.8,11c7.7,6.9,6.9,13.3-0.8,19.8c-2.4,2-5.8,2-8.2,0.2
		c-3.6-2.8-6.7-1.3-9.9,0.4c-3.2,1.7-6.1,3.9-9.4,5.4c-3.1,1.4-6.3,2.8-9.6,3.2c-3.5,0.4-5.1,2.3-6.2,5
		c-5.2,11.8-13.8,20.3-24.7,27.1c-4.3,2.7-8.5,4.9-13.5,6c-3.2,0.7-3.5,2.8-2.1,5.8c1.7,3.7,2.9,7.6,4.6,11.3c1.9,4.1,6,8-0.1,12
		c-0.3,0.2-0.3,1-0.4,1.5c-0.1,0.4-0.3,0.7-0.9,2.1c-2.9-1.1-6.2-1.6-8.5-3.4c-2.5-2-3.6-5.1-0.8-8.3c0.8-0.9,0.7-3.3,0.1-4.5
		c-1.4-2.9-3.4-5.6-4.9-8.4c-1-2-1.6-4.1-2.5-6.4c-0.9,0-2.1,0-3.2,0c-0.2,0.5-0.5,1-0.4,1.2c1.7,4,3.5,8.1,5.2,12.1
		c0.3,0.7,0.8,1.4,0.9,2.1c0.2,1.5-5.9,8-7.4,8.4c-1.9,0.4-3.8,1-5.6,1.7c-4.1,1.6-7.4,0.3-8.8-3.6c-1.5-4.2,0.1-7,4.6-8.3
		c1.1-0.3,2.2-0.7,3.5-1.1c-1.3-3.2-2.5-5.9-3.5-8.7c-0.9-2.6-1.6-5.2-2.6-8.6c-2.7-1.2-6.5-2.7-10.1-4.5
		c-5.6-2.8-11.5-5.1-16.4-8.8c-3.6-2.9-6.2-7.4-8.4-11.7c-2.8-5.4-5.5-11.1-6.9-17c-3-12.6-3.6-25.2,5.5-36
		c5.7-6.8,11.8-13.4,18-19.8c1.5-1.6,3.8-2.7,5.9-3.6c9.4-3.9,19-7.5,29.3-7.5c3.9,0,7.9,1.6,11.7,3c5.1,1.8,9.9,4.1,14.9,6.2
		c0.6,0.3,1.3,0.3,1.8,0.8c5.8,5.3,11.2,11.2,17.4,16c11.3,8.8,14.1,20.8,14.2,34.1c0,4.8,0.8,5.4,5,3.2c4.5-2.4,9.1-4.9,13.1-8.1
		c2.5-2,3.8-5.5,5.4-8.4c0.4-0.8-0.2-2.2-0.6-3.2c-2.5-5.3-5-10.6-7.6-15.9c-0.3-0.6-1-1.5-1.5-1.5c-0.6,0-1.4,0.6-1.8,1.2
		c-0.9,1.3-1.3,3.1-2.5,4c-1.5,1.1-3.8,2.4-5.4,2c-1.6-0.4-3.4-2.5-3.9-4.3c-1.4-4.6,1.4-8.4,3.4-12.3c2.2-4.4,4.5-8.9,7.3-12.9
		c1.1-1.5,3.5-2.6,5.5-2.9c1.8-0.2,4.1,0.5,5.7,1.5 M1698.7,952.6c-1.7,0.9-3,1.4-4.1,2.1c-4.3,2.9-9.4,5.1-12.8,8.9
		c-7.3,8.3-9.3,18.6-6.5,29.1c1.5,5.8,4.9,11.1,7.2,16.8c3.3,7.9,9.8,12.3,17.2,15.7c5.3,2.4,10.8,4.6,16.4,6.2
		c5.2,1.5,10.8,3.5,15.9,2.9c10.4-1.1,18.9-7.4,26.7-13.8c8.1-6.7,11.7-16.8,14.2-26.6c3-11.9-0.7-22.9-9.3-31.9
		c-3-3.1-6.2-6.1-9.7-8.7c-8.4-6.1-17.4-11.6-27.9-12.4c-6.3-0.5-12.7,1.4-19.1,2.4c-4.2,0.6-8.5,1.5-11.1,5.8
		C1696.6,950,1697.4,950.9,1698.7,952.6z"/>
	<path d="M299.9,716.1c-0.7-6.6-1.5-13.1-2.1-19.6c-0.2-1.8,0.3-3.7,0.1-5.4c-1.4-9.2-3.2-18.3-4.3-27.5c-0.3-2.3,1.1-4.8,1.8-7.1
		c0.3-1.1,1.3-2.1,1.4-3.2c0.4-3.7,3.3-3.3,5.4-2.8c1.4,0.3,2.9,2.4,3.3,3.9c0.4,1.8-0.7,3.9-0.6,5.8c0.3,8.7,0.7,17.4,1.4,26
		c0.6,6.9,2,13.8,2.4,20.8c0.4,6.7,0.1,13.5,0.1,20.3c0,0.3-0.1,0.5,0,0.8c2.6,9.6,2.2,19.5,2.7,29.3c0.2,3.4-0.6,7,0.1,10.2
		c1.1,4.5,0.4,8.8,0.4,13.2c0,2.7,1.3,5.3,1.8,8c1.4,8,2.7,16,4.2,24c0.3,1.4,1.1,2.7,1.4,4.1c0.4,1.5,1.3,3.6,0.6,4.4
		c-2.1,2.5-4.5,5.7-7.3,6.5c-3.1,0.9-5.4-2.7-6-5.7c-0.8-4.1-1.5-8.4-1-12.4c1-9.4-1.1-18.4-2.1-27.5c-0.7-5.9-0.7-11.8-1-17.8
		c-0.3-7.5-0.6-15-0.9-22.5c-0.1-1.8-0.3-3.7-0.5-5.8c-1-0.1-2.1,0-3-0.4c-1.4-0.6-3.6-1.3-3.9-2.4c-1.6-5.5-6.3-7.8-10.6-10.2
		c-5-2.8-10.7-4.4-15.8-7c-8.3-4.2-16.3-8.9-24.6-13.2c-4-2.1-8.3-3.6-12.5-5.5c-2-0.9-3.7-1.8-4.3-4.5c-0.6-2.4-2.8-3.1-4.9-0.7
		c-3.8-3.3-7.5-6.5-11.1-9.7c-4.2-3.7-5.1-3.5-9.5-0.6c-6.3,4.1-14.2,2.2-17.7-6.2c-1.3-3.2-1.8-6.9-2-10.4
		c-0.5-7.4,3.3-11,10.6-11.3c6.2-0.2,10.3,3,14.6,6.7c6.3,5.4,13,10.4,19.6,15.3c5.7,4.3,11.9,7.9,17.2,12.6
		c7.7,6.7,15.4,12.9,24.9,16.9c7.5,3.2,14.6,7.4,22.2,10.6C292.8,716.9,296.1,716.1,299.9,716.1z M196.4,668.7
		c-1.6-1.6-2.6-3.1-4-3.8c-0.4-0.2-2.9,2.1-2.7,2.7c0.6,2,0.1,5.4,3.4,5.3C194,672.9,194.9,670.7,196.4,668.7z"/>
	<path fill="#FFFFFF" d="M1592.7,447.6"/>
	<path fill="#FFFFFF" d="M1614.2,467.2"/>
	<path fill="#FFFFFF" d="M1664.7,516"/>
	<path fill="#FFFFFF" d="M1668.7,525.6"/>
	<path d="M1552.5,539c0.3,8.2-10.5,15.3-18,11.5c-6.6-3.3-12-9.4-8.9-16.9c0.3-0.7,0.6-1.5,1-2.1c1.4-1.9,13.7-5.8,16.1-4.9
		C1548.9,528.8,1551.9,530.7,1552.5,539z"/>
	<path d="M1468.5,552.4c-10,0.7-16-9.2-13.5-16.7c2.5-7.5,5.9-9.7,13.4-6.8c3,1.2,6.1,2.5,8.8,4.2c4.4,2.8,5.6,9.5,2.3,13.5
		C1476.6,550.2,1473.1,553.1,1468.5,552.4z"/>
	<path d="M1545.6,502.3c-1.7,1.9-2.8,4.3-4.4,4.7c-3.2,0.8-4.1,3.4-5.8,5.4c-1.5,1.6-3,3.3-4.5,4.9c-1.9,2.1-4.5,3-6.6,1.1
		c-2.4-2.2-2.4-5.6-0.3-8c3.7-4.2,7.8-8.3,12.1-11.9c1.2-1,4-0.8,5.9-0.3C1543.2,498.6,1544.1,500.5,1545.6,502.3z"/>
	<path d="M1473.3,497.5c1.3,0.8,3.5,1.5,4,2.8c0.5,1.3,0,3.8-1,4.9c-3.8,4-7.8,7.9-12.1,11.3c-1.2,1-3.9,1-5.4,0.4
		c-1.3-0.6-2.6-2.8-2.6-4.3c0-1.6,1.2-3.4,2.5-4.6c3.1-3,6.3-5.9,9.7-8.6C1469.5,498.4,1471.3,498.2,1473.3,497.5z"/>
	<path d="M436.3,534.9c-6.5,0-10-4.4-13.7-8.7c-3.4-3.9-4-8.1-2-12.7c1.2-3,3.2-4.9,6.8-5.2c2.2-0.1,4.3-1.2,6.5-1.3
		c6.6-0.4,12.7,1.4,17.7,5.9c2.7,2.4,2.5,8.6-0.7,12c-3,3.1-6.3,6-9.7,8.6C439.9,534.5,438,534.5,436.3,534.9z"/>
	<path d="M358.6,512.2c-1.3,7.8-5.5,12.8-12,15.6c-4.2,1.8-9,3.4-12.9-0.5c-4.3-4.3-9-8.6-7.5-15.9c1.1-5.2,8.9-12.6,13.8-11.2
		c5.9,1.7,11.4,5,16.9,8C358,508.8,358.2,511.1,358.6,512.2z"/>
	<path d="M431.8,474.8c2.7,1.3,5.8,2.7,8.8,4.2c3.4,1.6,6.8,3.1,10.2,4.7c1.3,0.6,3.1,1.1,3.6,2.2c0.6,1.2,0.6,3.4-0.2,4.4
		c-1.3,1.6-3.2,3-5.1,3.8c-1.2,0.5-3.1-0.2-4.3-0.9c-4.2-2.3-8-5.5-12.4-7.2c-2.7-1-6.3,0.1-9.5,0.2c-1.3,0-3.4,0.2-3.7-0.3
		c-0.6-1.5-1-3.6-0.4-4.9C421.3,475.5,426.8,476.3,431.8,474.8z"/>
	<path d="M323.3,472.8c4,1.4,8.2,2.8,12.3,4.3c3.2,1.2,6.4,2.5,9.5,3.8c3.3,1.4,3.5,4.8,1,7.1c-3.1,2.9-5,2.8-8.7,0.1
		c-4.4-3.2-10.3-4.3-15.6-6.1c-1.6-0.5-5.6-6-4.6-6.8C318.6,474,320.8,473.7,323.3,472.8z"/>
	<path d="M188,977.1c-0.4,0.5-1,1.6-1.9,2.4c-1.6,1.5-3.3,3-5.1,4.2c-1,0.6-3.4,0.9-3.6,0.5c-1.8-3.5-4.4-6.3-4.7-10.8
		c-0.4-6.5-2.7-12.8-3.8-19.2c-0.4-2.4,0.2-5,0.6-7.5c0.3-1.8,1.1-3.5,1.6-5.2c0.8-2.9,2.6-4.8,5.6-4.4c2.9,0.3,5.1,1.5,5.4,5.5
		c0.3,6,1.6,12,2.7,17.9C185.5,965.6,186.7,970.9,188,977.1z"/>
	<path d="M195.2,965.6c-0.6-3.7-1.3-7.5-1.9-11.2c-0.2-1-0.8-2.1-0.6-3c0.5-2.5,0.7-6.4,2.2-7.1c2.6-1.1,6.1-0.5,9.2-0.1
		c0.9,0.1,1.9,1.8,2.2,3c1.6,6.9,3.2,13.8,4.5,20.8c0.5,2.8,0.3,5.5-3.2,6.8c-1.4,0.5-2.2,2.4-3.5,3.4c-2.5,1.9-4.7,1.6-5.9-1.5
		c-1.3-3.6-2.4-7.3-3.6-10.9C194.7,965.7,194.9,965.6,195.2,965.6z"/>
	<path d="M1309.5,981.2c0-4.2,0.4-8.5-0.1-12.6c-0.5-3.4,0.9-5.8,3.6-5.8c2.5-0.1,6.9,1.5,7.3,3c1.9,8.8,3,17.9,4.1,26.9
		c0.3,2.2-7.1,8.2-9,7.3c-1.7-0.8-3.4-2.9-3.9-4.8c-1.3-4.5-1.8-9.2-2.7-13.9C1309,981.3,1309.3,981.3,1309.5,981.2z"/>
	<path d="M1376.6,986.5c0.5,6.7-1.9,10.4-8,11.6c-1.1,0.2-3.4-1.5-3.8-2.7c-2.4-7.9-4.6-15.9-6.7-23.9c-1.1-4.1,1.9-5.5,4.8-6.5
		c3-1,6.2-0.3,7.5,2.7c2.7,6,4.8,12.3,7.2,18.5C1377.2,986.3,1376.9,986.4,1376.6,986.5z"/>
	<path d="M1719.9,1018.9c-1.5,1.9-2.3,3.6-3.7,4.6c-5,3.7-9.6,1.4-12.1-5.9c-1.4-4-2.8-8-3.4-12.1c-0.3-2.1,0.6-5.4,2.1-6.5
		c3-2,7.9,0.3,9.4,3.5c1.3,2.7,2.7,5.4,4,8.1c0.1,0.3,0.6,0.4,1.3,0.9c0.2-1.9,0.4-3.6,0.6-5.2c0.2-2.2,1.3-4.1,3.6-3.8
		c2.5,0.4,6.2,0.9,7.2,2.6c3.1,5.4,5.3,11.4,7.7,17.2c1.2,2.9-0.4,7.2-3.2,8.5c-2.8,1.3-5.9,0.1-7.7-3
		C1723.8,1025,1721.9,1022.1,1719.9,1018.9z"/>
	<path d="M1704.8,987.6c1.5-2.9,3-5.4,4.2-8.1c0.6-1.5,1.1-3.1,1.2-4.7c0-3.8,3.3-6.2,7.2-6.1c8.9,0.2,12.1,5.7,15.6,13
		c3.3,7.1,0.8,11.5-3.5,15.5c-2.1,1.9-6.4,2.9-9.3,2.2c-4-0.9-7.8-3.4-11.3-5.8C1707,992.6,1706.3,990,1704.8,987.6z M1715.8,984.9
		c0.4,0.7,0.7,1.3,1.1,2c1.4-0.5,3.3-0.7,4.1-1.7c0.5-0.7-0.7-2.6-1.1-3.9C1718.5,982.4,1717.2,983.6,1715.8,984.9z"/>
	<path d="M1714.4,947.6c2.5,0,4.8-0.7,5.8,0.2c1.7,1.5,0.1,4.9-3,6.7C1716.4,952.6,1715.7,950.9,1714.4,947.6z"/>
	<path d="M1683.4,966.9c1.3-0.4,2.6-1.3,3.4-0.9c0.9,0.3,1.8,1.8,1.8,2.8c0,0.8-1.4,1.5-2.2,2.3
		C1685.8,970.2,1685.2,969.4,1683.4,966.9z"/>
	<path d="M1755.3,985c5.4-0.3,5.5-0.1,3.4,6.1C1757.3,988.7,1756.5,987.2,1755.3,985z"/>
	<path fill="#FFFFFF" d="M1719.9,981.2"/>
	<path fill="#FFFFFF" d="M1716.9,986.8c-0.4-0.7-0.7-1.3-1.1-2"/>
</g>
<text transform="matrix(1 0 0 1 678.8292 197.2115)" font-family="'Amatic-Bold'" font-size="226.1243">Food Fight</text>
</svg>
