<?xml version="1.0" encoding="utf-8"?>
<!-- Generator: Adobe Illustrator 17.1.0, SVG Export Plug-In . SVG Version: 6.00 Build 0)  -->
<!DOCTYPE svg PUBLIC "-//W3C//DTD SVG 1.1//EN" "http://www.w3.org/Graphics/SVG/1.1/DTD/svg11.dtd">
<svg version="1.1" xmlns="http://www.w3.org/2000/svg" xmlns:xlink="http://www.w3.org/1999/xlink" x="0px" y="0px"
	 viewBox="0 0 240 240" enable-background="new 0 0 240 240" xml:space="preserve">
<g id="Background">
	<g>
		<g>
			<path fill="#FFFFFF" d="M1.4,0.3v240h240V0.3H1.4z"/>
			<g>
				<path fill="#FFFFFF" d="M-0.1,0.3c0,46.6,0,93.3,0,139.9c0,33.4,0,66.7,0,100.1c0,0.8,0.7,1.5,1.5,1.5c46.6,0,93.3,0,139.9,0
					c33.4,0,66.7,0,100.1,0c0.8,0,1.5-0.7,1.5-1.5c0-46.6,0-93.3,0-139.9c0-33.4,0-66.7,0-100.1c0-0.8-0.7-1.5-1.5-1.5
					c-46.6,0-93.3,0-139.9,0c-33.4,0-66.7,0-100.1,0c-1.9,0-1.9,3,0,3c46.6,0,93.3,0,139.9,0c33.4,0,66.7,0,100.1,0
					c-0.5-0.5-1-1-1.5-1.5c0,46.6,0,93.3,0,139.9c0,33.4,0,66.7,0,100.1c0.5-0.5,1-1,1.5-1.5c-46.6,0-93.3,0-139.9,0
					c-33.4,0-66.7,0-100.1,0c0.5,0.5,1,1,1.5,1.5c0-46.6,0-93.3,0-139.9c0-33.4,0-66.7,0-100.1C2.9-1.6-0.1-1.6-0.1,0.3z"/>
			</g>
		</g>
		<path d="M226.3,117c-1.3-0.1-2.5,0-4.3,0c-2.4-0.1-3.9,0-6.2,0.1c-2.3-0.1-3.4-0.2-5.4-0.2c-3,0-4.5,1.9-4.4,3.9
			c0,1.4,7.5,0.8,7.8,2.4c0,0-7.2,2.2-7.6,2.3c-3.1,1.1-6.1,2.1-9.2,3.1c-6.1,1.9-12.2,3.8-18.2,5.8c-1.9,0.6-3.7,1.5-5.4,2.4
			c-1.1,0.5-2.1,0.7-3-0.4c-1-1.2-2.3-1.6-3.8-0.9c-1,0.5-2.1,0.9-2.9,1.7c-1.5,1.5-3.1,1.4-4.9,1c-0.4-0.1-0.9-0.2-1.3-0.2
			c-4.5-0.1-9-0.1-13.5-0.3c-1.7-0.1-3.5-0.6-5.1-1.9c2.3-0.8,4.1-1.6,5.3-3.4c0.2-0.4,0.6-0.7,0.9-1c1.8-1.8,3.9-3.4,5.5-5.5
			c2.2-2.9,4-6.2,6.1-9.2c0.9-1.3,2.2-2.3,3-3.6c1.7-2.7,3.2-5.5,4.9-8.3c1.5-2.4,1.5-5.1,2-7.7c0.3-1.9,0.5-3.1,1-5
			c0.1-0.6,0.2-1.9,0.2-2.6c0-1.2,0.2-2.3,0.1-3.5c-0.1-0.6-0.1-1.1-0.2-1.6c-1.5-4.2-2.3-7.5-5-11.1c-0.4-0.6-1.5-2.1-1.9-2.6
			c-1.2-1.6-3.2-3.1-4.8-4.2c-4.4-3-9.5-4.1-14.6-5c-0.8-0.1-1.6-0.4-2.5-0.4c-2.7-0.2-5.5-0.4-8.2-0.6c-0.5,0-0.9,0-1.4,0
			c-2.5,0.2-5,0.4-7.5,0.6c-1.3,0.1-2.3-0.2-2.9-1.7c-0.4-1.1-1.2-2.1-2.1-2.9c-2.6-2.5-5.4-5-8.1-7.4c-0.5-0.5-1-0.9-1.6-1.3
			c-1.8-1.6-3.5-3.3-5.5-4.7c-1.9-1.3-4.1-2-6-3.3c-3.7-2.4-8.1-2.6-12.1-3.7c-4.2-1.1-8.7-1.3-13.1-1.8c-2.2-0.2-4.4-0.1-6.6-0.1
			c-1,0-5.7,0.3-7.5,0.5l-5.3,1.3c-1.4,0.2-2.9,0.6-4.3,1.1c-1.6,0.6-3.2,1.4-4.8,2c-4.4,1.4-8.9,2.6-13,5.2c-2.4,1.5-5.2,2.2-7,4.7
			c-0.4,0.6-1.2,0.8-1.9,1.2c-2,1.2-2.1,3.6-3.3,5.3c-0.6,0.9-1.5,1.8-1.7,2.9c-0.7,3.3,0.1,6.7-0.5,10.1c-0.5,3.1,0.2,6.5,0.7,9.7
			c0.5,3.4,1.5,6.8,1.9,10.2c0.2,1.8,1.1,3.3,2,4.6c1,1.5,1.7,2.9,1.9,4.7c0.3,2.5,1,4.7,2.4,6.7c0.9,1.4,1.7,2.9,2.5,4.4
			c0.4,0.7,0.5,1.5,1,2.1c1.3,1.8,2.4,3.8,4,5.2c1.7,1.5,2.5,3.9,4.9,4.8c1,0.3,1.9,1.1,2.7,1.6c-0.7,1.4-1.2,2.8-2,3.9
			c-1.7,2.2-3.4,4.4-4,7.2c-0.2,1-0.2,2-0.4,3c-0.5,2.3-0.3,4.5,1.4,6.3c0.6,0.7,1.1,1.6,1.6,2.4c1.2,2.2,2.9,3.6,5.5,3.8
			c0.3,0,0.6,0.1,0.8,0.3c2,1.1,3.9,1.8,6.4,1.4c2.8-0.4,5.6-0.1,8.5-0.1c0.7,0,1.3-0.2,2-0.3c0.8-0.1,1.6-0.2,2.6-0.4
			c0,1.9-1.2,2.8-1.9,4c-1.8,3.4-3.3,7.1-5,10.6c-0.8,1.6-0.5,2.9,0.7,4.1c1.8,1.9,4.3,2.3,6.6,3.1c1.9,0.7,2.9,0.5,4.4-0.1
			c0.9-0.9,1.2-0.7,2.1-1.7c1.1,0.9,2.1,1.2,3.2,1.8c2.4,1.4,5,2.6,7.4,4.1c1,0.6,1.1,0.1,2-0.3c0.4-0.2,1-0.5,1.6-0.9
			c1.3-0.8,3-2.4,1.9-3.5c-1.9-1.7-3-2-5.1-3.5c-0.1-0.1-1.5-1-1.6-1c-0.9-0.2-1.6-1.1-1.2-2c0.5-1.2,1.4-2.3,2.2-3.4
			c1.3-1.9,2.8-3.7,4.1-5.6c1-1.6,1.6-3.3,2.4-5.1c0.4,0.2,0.8,0.3,1,0.6c1.5,2.5,3,5,4.6,7.5c0.4,0.7,0.9,1.4,1.5,1.9
			c1.8,1.8,3.7,3.6,6.3,4.4c0.3,0.1,0.5,0.4,0.7,0.6c0.8,0.7,1.4,1.6,2.3,2c1.3,0.6,2.7,0.7,4.2,0.2c1.8-0.6,3.9-0.4,5.8-1
			c2.1-0.6,4.2-1.5,6.1-2.7c1.5-0.9,2.4-2.7,3.9-3.5c2.4-1.3,3.4-3.7,5-5.6c1.3-1.5,1-3.2,1.1-4.9c0.3-2.7,1.5-5.5-0.5-8.1
			c-0.2-0.2,0.3-1.2,0.7-1.4c1.4-0.9,2.8-1.6,4.3-2.4c0.8-0.4,1.6-0.6,2.5-0.9c-0.2,2.2,0.1,2.4,1.8,3.4c2.3,1.4,4.8,1.8,7.4,2
			c4,0.2,7.9,0.5,11.9,0.6c2.2,0,3.7,0.8,3.3,2.4c-0.7,3.1,3.3,5.2,5.8,4.3c2.3-0.8,3.9-2.4,5.4-4.2c0.5-0.6,1.6-1.4,2.2-1.2
			c3.1,0.7,4.2-2.2,6.4-3.2c1.7-0.8,3.1-2.3,4.9-3.1c2.1-1,4.3-1.4,6.5-2.2c1.5-0.6,3-1.3,4.5-2c0.7-0.3,1.4-0.6,2.5-1.1
			c5.6-0.8,11.1-3.8,17.1-5.2c-0.3,0.7-0.5,1.5-1,2.1c-1.7,2.3-2.4,3.5-4.3,5.8c-0.6,0.7-0.5,1.6,0.3,2.5c0.6,0.7,0.9,0.7,1.7,1.1
			c1.2,0.4,1.6,0.7,2.6,0c0.9-1.1,1.3-1.7,2.1-2.7c0.4-0.5,0.7-0.9,1.3-1.9c0.4-0.6,1-1.1,1.5-1.6c1.6-1.2,3.2-2.4,4.7-3.6
			c2.7-2.1,5.5-4,7-7.3C230.8,119.9,229.2,117.2,226.3,117z M119.1,95.5c0.5-0.9,1.8-3.3,1.9-3.4c0.8-0.1,2,0.1,2.8,0.3
			c3,0.9,4.2,2,6.1,5c1.1,1.8,0.4,3.7-0.3,5.5c-0.7,1.8-1.5,3.7-2.8,5.2c-1.7,2.1-3.3,3.3-6.9,3.1c-2.4-0.1-4,0.7-5.7-0.7
			c-0.8-0.7-1.7-1.3-2.9-2.2C114.7,103.2,116,101.6,119.1,95.5z M77.2,150.2c-2.1,3.5-3.8,7.2-6.1,10.6c-1.3,2-3.5,6.8-3.3,8.6
			c0,0.1-0.4,0.5-1.3-1.6c-0.5-1.1-2.3-2.3-4-3.1c-1.5-0.7,0.2-3,0.5-3.8c1.2-2.6,2.7-5,4-7.5c0.1-0.1,0-0.2,0.1-0.3
			c0.8-1.4,1.8-3.4,2.4-5.2c2.4-0.6,3-0.8,5-1.2c0.6-0.1,1.3,0.2,1.9,0.3C76.2,148.1,78.1,148.7,77.2,150.2z M81.7,144.9
			c-0.7-0.1-1.4-0.2-2.1-0.3c0-0.2-0.1-0.4-0.1-0.6c0.7-0.5,1.3-1,2-1.4c0.2,0,0.3,0.1,0.5,0.1C81.8,143.5,81.8,144.2,81.7,144.9z
			 M84.1,76.6c-1.9-3.2-3.7-6.3-6.9-8.4c-1.5-0.9-3.1-1-4.7-1.5c-2.7-0.8-5.1-0.2-7.4,0.7c-1.9,0.7-3.5,1.9-4.7,3.7
			c-0.9,1.5-2.5,2.6-3.2,4.2c-0.7,1.5-0.8,3.3-0.9,4.9c-0.1,1.8,0,3.7,0.4,5.5c0.9,3.7,1.8,6.8,2.9,10.5c0.2,0.6,1,1.7,1.5,2.1
			c1,0.8,0.9,1.5,0.1,2.3c-0.8,0.8-1.6,1.6-2.4,2.4c-0.2,0.2-0.4,0.4-0.6,0.6c-2.4,1.1-4.7,2.6-7.2,3.3c-2.3,0.7-3.3,2.6-4.8,4.1
			c-1.2,1.3-2.1,2.8-3.2,4.1c-0.9,1-1.8,0.6-2.7,0c-2.9-2.1-6-4-7.5-7.5c-0.9-2-2.3-3.8-3.4-5.8c-0.3-0.5-0.2-1.3-0.4-1.9
			c-0.2-0.5-0.6-0.9-0.8-1.4c-0.4-0.8-0.7-1.1-1.1-2.2c-0.1-0.4-0.4-1.1-0.6-1.6c-0.6-1.6-1.3-3.2-1.9-4.8c-0.1-0.2,0-0.3-0.1-0.5
			c-0.9-3.4-2-6.7-2.7-10.1c-0.4-1.9-0.4-4-0.6-6c-0.1-1.9-0.1-3.8-0.4-5.6c-0.4-2.6,0.3-5.1,1.4-7.3c1.4-2.7,2.8-5.5,4.9-7.6
			c1.9-1.9,4.3-3.5,7.1-4.3c2.7-0.7,5.3-2,8-3c0.4-0.2,0.9-0.3,1.3-0.4c0.7-0.2,2.1-0.7,3.4-1.2c0.2-0.1,0.8-0.3,1-0.3
			c4.2-0.6,8.1-2.1,12.4-2.3c2.8-0.1,5.6-0.9,8.4-1.3c0.9-0.1,1.8,0,2.6,0c1.1,0.1,2.2,0.3,3.3,0.5c3,0.6,6.1,1.3,9.1,1.9
			c1.8,0.4,3.7,0.5,5.2,1.3c3.3,1.6,7.1,2.4,9.9,5.1c3.9,3.7,8.4,6.8,12.3,10.5l-0.1,0c0.2,0.3,0.5,0.5,0.7,0.9
			c0.9,1.5,2.2,2.8,3.1,4.2c0,0,0,0,0,0l0.1-0.1c1.4,2.3,2.1,6.4,2.4,8.1c0.6,2.9,0.2,5.9-0.5,8.9c-0.6,2.6-0.4,5.4-0.9,8.1
			c-0.3,1.6-1.3,3.1-2.1,4.6c-0.9,1.6-2.1,3.1-2.9,4.7c-1.5,3.1-4.3,5.2-6.2,8c-1.8,2.7-3.4,5.6-5.1,8.4c-0.7,1.2-1.5,2.4-2.4,3.5
			c-2.7,3.2-5.5,6.3-8.4,9.4c-1.4,1.5-3,3-4.7,4.3c-3,2.3-6,4.6-9.3,6.4c-2.2,1.2-4.9,1.7-7.3,2.4c-2.6,0.7-5.2,1.3-7.8,1.8
			c-2.5,0.5-5.1,0.8-7.6,1.1c-1.8,0.2-3.7,0.1-5.6-0.1c-0.9-0.1-1.8-1-2.8-1.1c-3.2-0.5-3.4-3.3-4.6-5.4c-0.2-0.4,0.1-1.1,0.1-1.6
			c0.5-3.5,2.2-6.5,4.5-9c0.8-0.9,1.2-1.9,1.7-2.8c0.1-0.2,0.6-1.1,0.8-1.3c0.2-0.3,0.4-1.4,0.9-2.8c0,0,0,0,0,0
			c0.6-1,1.3-1.8,1.6-2.7c1-2.4,3.1-3.7,4.7-5.5c1.8-2,4.3-1.5,6.2-3.1c1.8-1.5,4.1-2.6,6.1-3.8c0.2-0.1,0.5-0.3,0.7-0.4
			c2.5-0.6,3.8-2.5,4.9-4.6c0.2-0.3,0.4-0.7,0.7-0.9c4.5-3.8,8.5-8,11.5-13c0.7-1.2,1.3-2.6,1.7-4l0-0.2c0-0.2,0-0.3,0-0.5
			c0-0.5-0.1-1-0.3-1.5c-0.1-0.4-0.2-0.7-0.5-1.3c-0.1-0.1-0.3-0.6-0.3-0.7c0,0,0-0.1-0.1-0.1c0,0,0-0.1-0.1-0.1 M63.1,80.4
			c0-1.7,0.6-3.1,1.5-4.5c1.2-2,2.9-2.8,4.9-3.3c0.1,0,0.1,0,0.2,0c3.7-1.8,4.8,0.1,7.2,2.1c0.2,0.2,1.3,1.4,1.4,1.7
			c0.1,0.5,0.2,1,0.3,1.6c0.4,2.5,0.6,3.8-0.8,5.5c-3.3,3.8-6.6,7.7-10,11.7c-2.4-2.1-3.9-4.2-4-7.2c0-0.9-0.7-1.8-0.8-2.7
			C63,83.7,63.1,82.1,63.1,80.4z M119.5,148.6c-0.5,3.9-2.9,6.3-6,8.5c-1.8,1.3-3.6,2.1-5.6,2.9c-3.4,1.3-6.5,1-8.9-1.5
			c-1.7-1.8-3.9-3-5.6-4.7c-0.8-0.8-1.4-1.7-1.8-2.7c-0.7-1.5-1.2-3.2-1.8-4.8c-0.1-0.3-0.2-0.5-0.4-0.7c-1.1-1.7-1.5-3.6-1.6-5.6
			c-0.1-2,1.6-3,2.9-4.2c1.1-1,2.2-1.9,3.2-3c2.2-2.3,4.3-4.7,6.4-7c0.4-0.5,0.7-1,1.2-1.8c1.4,3,4.1,4.2,6.4,5.9
			c1.4,1,2.4,2.3,3.7,3.5c1.4,1.3,2.9,2.5,4.1,4c1.9,2.4,3.5,4.9,3.6,8.1C119.2,146.4,119.7,147.5,119.5,148.6z M132.1,130.7
			c-1.7,0.8-3.3,1.8-4.9,2.8c-0.3,0.2-0.6,0.4-1.1,0.7c-0.7,0.7-1.3,0.9-1.8,1.2c-1.3-1.1-2.1-1.8-3.2-2.9c-0.7-0.7-1-1.6-1.5-2.4
			c-2.3-3.3-5.5-5.4-9.1-7.2c-1.7-0.8-3.3-1.9-4.8-3c-0.3-0.2-0.4-1.1-0.2-1.6c0.3-1,0.8-2,1.4-2.9c0.3-0.4,1.1-0.7,1.5-0.6
			c0.8,0.3,2.3,0.9,3,1.2c1.4,0.6,2.7,1.4,4.3,1.5c2.1,0.2,3.9,0,6,0.1c0.6,0,3.2-0.6,3.7-0.9c2.9-1.8,4.6-2.1,7-4.6
			c0.5-0.5,0.6-1.3,0.9-1.9c0.9-2,1.9-4.1,2.8-6.1c0.3-0.8,0.3-1.7,0.4-2.5c0.2-2.4,0.5-4.8-1-7.1c-1.4-2.1-3.2-3.7-5.4-5.1
			c-0.9-0.6-2.1-1.4-3.3-1.8c-1-0.3-2.5-0.5-4.5-0.6c0.1-0.7,0.1-1.3,0.1-1.9c0.1-1,0.3-2.1,0.2-3.1c-0.2-1.5-0.2-2.9,0.2-4.5
			c0.6-2.4,0.4-5.1-0.7-7.6c-1.1-2.5-0.4-3.7,2.4-3.6c2.6,0,5.1,0.4,7.7,0.6c2.6,0.2,5.1,0.7,7.6,0.6c4-0.1,7.5,1.6,11.1,2.8
			c0.2,0.1,0.4,0.2,0.6,0.3c4.1,3.7,8.4,7.2,9.7,13c0.3,1.1,0.6,2,0.7,3.2c0,0.4,0,1.3,0,1.5c0,2-0.1,4-0.9,6
			c-0.9,2.1-0.5,4.4-1.3,6.3c-1,2.3-2.6,4.3-4.1,6.4c-1.5,2.2-3,4.5-4.6,6.6c-0.8,1-1.5,1.9-2.5,2.8c-0.2,0.2-0.6,0.7-0.8,1
			c-1.2,1.8-2.3,3.5-3.8,5c-2.1,2.1-4.5,4.1-7,5.8C135.9,129.5,133.9,129.9,132.1,130.7z"/>
		<path fill="#FFFFFF" d="M79.5,144.6c0-0.2-0.1-0.4-0.1-0.6c0.7-0.5,1.3-1,2-1.4c0.2,0,0.3,0.1,0.5,0.1"/>
		<path d="M54.1,130.6c0.4-1.6,0.7-2.9,1.2-4.1c0.6-1.4,1-2.7,1.9-4c1-1.5,2-2.8,3-4.3c1.6-2.4,3.2-1.5,5.5-0.3
			c1.3,1.1,1.3,1.4,1.2,3.3c-0.6,1.6-1.6,4.6-2.2,6.1c-1.1,2.8-2.4,5.2-4.6,7.3c-0.7,0.7-1.4,0.9-2.6,0.7
			C53.2,132.9,54.1,131.8,54.1,130.6z"/>
		<path d="M109.7,135.4c0.5,1.7,0.5,2.4,0.5,3.4c0.1,0.8-0.5,1.9-0.8,2.7c-0.5,1.9-1.5,3.8-2.7,5.6c-1.2,2.7-1.9,4.5-4.3,5.7
			c-1.2-0.4-2.7-1.4-4.2-2.9c0-2.1,0.8-4.2,1.6-7c0.3-1.1,1-3.2,1.7-4.4c0.5-0.7,0.7-1.5,1.2-2.2c0.1-0.1,0.4-0.6,0.6-0.9
			c0.8-1,1.8-1.2,2.9-1.5C107.4,133.5,108.6,134.6,109.7,135.4z"/>
	</g>
</g>
<g id="Pretzel">
</g>
</svg>
