<?xml version="1.0" encoding="utf-8"?>
<!-- Generator: Adobe Illustrator 17.1.0, SVG Export Plug-In . SVG Version: 6.00 Build 0)  -->
<!DOCTYPE svg PUBLIC "-//W3C//DTD SVG 1.1//EN" "http://www.w3.org/Graphics/SVG/1.1/DTD/svg11.dtd">
<svg version="1.1" id="Background" xmlns="http://www.w3.org/2000/svg" xmlns:xlink="http://www.w3.org/1999/xlink" x="0px" y="0px"
	 viewBox="0 0 240 240" enable-background="new 0 0 240 240" xml:space="preserve">
<g>
	<path d="M218.5,112.7c0.6-2.1-0.5-3.6-1.5-5.2c-1.2-2-3.3-1.5-5-1.9c-1.2-0.3-2.5,0.6-3.8,0.9c-2.8,0.6-5.6,1.6-8.6,1.2
		c-0.2,0-0.5,0-0.7,0c-2.7,0.8-5.3,1.5-8,2.4c-0.5,0.2-1.3,0.6-1.4,1.1c-0.3,1.4-0.6,2.8-0.5,4.2c0.1,0.6,1.1,1.6,1.8,1.7
		c1.7,0.2,3.6,0.1,5.3-0.2c2.2-0.3,4.3-0.9,6.9-1.4c-0.4,0.6-0.5,1-0.7,1.1c-3.2,2.2-6.5,4.4-9.8,6.5c-2,1.2-4.3,1.9-6.3,3.1
		c-3.3,1.9-6.5,3.9-9.8,5.9c-2.3,1.4-3.4,1.2-5-1c-0.8-1.1-1.9-2.1-3.1-2.9c-0.7-0.4-1.9-0.4-2.6-0.1c-2.1,1-3.4,4.2-2.9,6.5
		c0.6,2.9,0.7,5.5-2.3,7.3c-1.9,1.1-3.6,2.7-5.4,4.1c-1.3,1-2.5,2.1-3.9,2.9c-1.7,1-2.4,0.6-2.8-1.3c-0.1-0.8-0.4-1.5-0.7-2.3
		c-1.1-2.5-2.4-4.9-3.4-7.4c-1.4-3.5-2.6-7-3.9-10.6c-0.1-0.3-0.4-0.8-0.5-0.9c-0.6-1-1-1.9-1.4-2.6c-0.7-1.4-0.8-2-1.4-3.4
		c-0.6-1.2-0.9-2.5-0.3-4.2c0.5-1.5,0.8-3,1.3-4.5c0.7-2.3,1.2-4.7,2.4-6.7c2-3.5,4.5-6.7,6.8-10c1.4-1.9,3-3.5,5.2-4.6
		c1.2-0.6,2.1-1.8,2.8-2.9c0.9-1.4,1.8-2.5,3.7-2.4c0.9,0,1.8-0.4,2.7-0.8c2.7-1.2,5-2.7,6.8-5.3c1.7-2.4,2.4-4.6,1.8-7.4
		c-0.8-3.6,0.2-6.1,3.4-7.4c2.9-1.2,4-3.8,4.6-6.1c0.8-3.1,0.2-6.4-1.4-9.3c-0.6-1-1.1-2.1-1.6-3.1c-0.4-0.7-0.5-1.7-1-2.2
		c-3.3-3.2-7.4-4.9-11.8-5.9c-1.2-0.3-2.3-0.6-3.6-0.9c0.6-0.7,0.8-1.1,1.2-1.5c3.8-4,1.2-9.9-3.3-10.9c-3-0.7-6.2-0.9-9.3-1
		c-3.5-0.2-7-0.3-10.3-1.5c-1-0.4-1.3-0.9-0.8-1.9c1.3-2.6,1.7-5.2,0.8-8.1c-0.6-2.1-2.1-3.5-3.9-4.2c-3.7-1.5-7.6-0.8-11.3,0.3
		c-1,0.3-2.1,0.6-3,1.2c-1.7,1.2-3.2,2.8-5,3.9c-4.1,2.6-4.9,6.3-4.5,10.8c0.2,1.6,0,2.6,0,4.6c-1.7-1.9-3.1-2-5.5-1.8
		c-1.5,0.1-3.1,0.3-4.5,0.8c-4.7,1.5-8.2,4.3-8.9,9.5c0,0.2,0,0.6-0.1,0.6c-0.4,0.3-0.9,0.7-1.2,0.7c-1.8-0.2-3.5-0.6-5.3-0.9
		c-1.1-0.2-1.7-0.3-0.8-1.5c2.3-3.2,2.2-7.9-0.2-10.1c-1.4-1.2-2.6-3.2-4.9-2.8c-2.2,0.3-4.4,0.6-6.6,1c-0.8,0.2-1.6,0.8-2.4,1.1
		c-2.4,0.8-4.8,1.5-7.2,2.3C59.8,28,58,29,56.2,26.8c-0.7-0.8-2.3-1-3.5-1.4c-1.5-0.5-2.9-0.2-4.4,0.3c-3.1,1.1-6.5,1.7-9,4.1
		c-1.2,1.2-2.6,2.3-3.5,3.7c-1.6,2.4-3.1,5-2.7,8c0.5,4,3,6.4,6.7,7.8c0.9,0.4,1.5,0.9,1,1.9c-0.4,0.9-0.9,1.7-1.2,2.7
		c-0.6,2.1-1.8,4.1-0.5,6.5c0.4,0.8,0.6,2.1-1.2,2.4c-0.7,0.1-1.7,0.9-2,1.6c-0.6,1.3-0.8,2.8-1.1,4.2c-0.1,0.3-0.6,0.7-1.3,1.1
		c0.2,0,0.3,0,0.5-0.1c-0.2,1.4-0.4,3-0.7,4.6c1.5,0.2,3.8-0.2,5.4-0.1c0-0.1,0-0.3,0-0.4c0.1-1.2,0.6-2.4,1.3-3.2
		c-0.1-0.2-0.1-0.4,0-0.7c0.1-0.7,1.1-1.7,1.7-1.7c1.7,0,3.4,0.4,5.1,0.8c0.6,0.1,1.1,0.8,1.4,1.4c1,1.8,1.5,3.8,1.6,5.9
		c0.1,1.2,1.5,2,2.5,1.4c1.2-0.7,2.1-0.1,2.9,0.5c2.6,1.9,5.6,2.8,8.6,3.1c4.1,0.4,6.7,2.6,8.1,6.2c0.6,1.5,0.8,3.2,1,4.8
		c0,0.2,0.1,0.3,0.1,0.5c0,0,0,0.1,0,0.1c0,0.2,0,0.4,0,0.6c0,0.7-0.3,1.5-0.7,2.1c-0.6,0.9-1.2,1.9-2,2.6c-0.4,0.4-0.9,0.7-1.4,1.1
		c0,0-0.1,0.1-0.1,0.1c-0.2,0.2-0.4,0.4-0.7,0.6c-1.5,1.7-2.7,3.2-4,4.6c-0.5,0.5-1.2,1-1.9,1.1c-3.3,0.5-6.7,1.3-10.1,0.5
		c-2.2-0.5-3-1.1-2.9-2.8c0.1-1.8-1.2-4.3-2.9-4.6c-1.2-0.2-2.6,0.2-3.9,0.6c-1.4,0.4-2.3,0.3-3.2-0.9c0.8-0.5,1.5-0.8,2-1.2
		c1.3-1.2,2.5-2.6,2.1-4.5c-0.4-2-3-4.2-4.8-4.1c-1.8,0.1-3.6,0.6-5.4,1c-1.6,0.4-2.4,1.4-3,3c-0.2,0.7-1.1,1.4-1.8,1.6
		c-0.9,0.2-2,0-3-0.2c-2.4-0.4-3.8-1.9-4.6-4.2c-1.3-3.8,0.5-7.1,2.5-9.6c2.5-3,5.6-5.8,9.9-6.1c0,0,0,0,0,0c-0.3,0-0.6-0.1-0.8-0.2
		c-2.6-1.9-0.6-3.3,1-4.3c-1.6,0.2-2.8,0.3-4.5,0.5c-0.5,0-1.2,0.2-1.6,0.4c-0.6,0.2-1.1,0.3-2,0.8c-3.4,1.6-6,3.7-7.9,7.2
		c-1.3,2.3-2.1,4.6-2.9,7.1c-1.6,4.8,0.3,8.8,3.3,12c2.1,2.1,5.4,3.1,8.6,2.9c2.5-0.1,4.1,0.9,5.9,2.4c1.8,1.5,4.2,2.3,6.3,3.5
		c0.8,0.5,1.9,0.8,2.4,1.5c1.7,2.6,4.3,3.7,7,4.7c4,1.4,8.2,1.1,12.3,0.6c2-0.2,4.1-0.7,6-1.6c1.3-0.6,2.3-1,3.8-0.8
		c1.4,0.2,2.8-0.2,4.3-0.2c0.8,0,1.7,0.2,2.5,0.3c3.2,0.7,6.3,1.3,9.5,2.1c0.5,0.1,1.1,0.7,1.3,1.1c0.6,1.4,1.3,2.9,1.6,4.4
		c0.5,2.4,1.5,4.6,1.6,7.1c0.1,4.1,0.9,8.1,1.2,12.1c0.3,3.1,0.3,6.3,0.7,9.4c0.6,4.6,1.4,9.1,2.1,13.7c0.5,3.2,0.8,6.4,1.3,9.6
		c0.7,4.4,0.8,7.4,1.3,12.1c0,0.4,0.1,2.3,0.3,2.7c0.4,1.7,0.7,3.3,0.9,5c0.3,2.4,0.8,4.7,0.9,7.2c0.1,1.7,0.2,2.9,0.7,4.2
		c0.3,0.9,1.2,1.7,2.1,2c0.7,0.4,1.3,0.8,2.1,0.8c2.3,0.1,2.8,0,5.2-0.9c1.3-0.5,2.8-1.2,4.3-1.1c1.2,0.1,1.7,0.6,1.9,0.9
		c1,2,2,4,2.7,6.2c1,3.3,1.7,6.8,2.6,10.2c0.4,1.7,1.2,3.3,1.6,4.9c0.4,1.4,0.5,2.9,0.8,4.3c0.4,1.5,1.7,2.2,3.2,1.9
		c1.5-0.3,3.1-0.7,4.6-1c1.4-0.2,3-0.7,4.4-1.1c0.9-0.3,3.3-1.9,3.4-3.1c-0.9-2.8-3-5.2-6.3-4.2c-1,0.4-2.5,0.8-3.6,0.9
		c-0.2-0.5-1.1-2.6-1.2-3c-0.3-1-0.6-2.1-1-3.1c-1.7-4.8-2.6-9.7-3.4-14.7c-0.1-0.4,0.3-1.1,0.6-1.2c3.7-1.1,7.3-2,11.3-3.1
		c0.3,0.8,0.9,2,1.1,2.5c0.7,1.5,1.2,2.8,1.7,4.5c0.2,0.9,0.6,1.9,1,2.7c0.2,0.6,0.5,0.8,0.8,1.5c0.8,1.5,1.1,3.3,1.7,4.9
		c0.8,1.8,0.9,3.9,1.2,5.9c0.3,1.5-0.1,2.4,1.6,2.8c0.7,0.2,1.6,0,2.1-0.1c0.5-0.1,1.1-0.3,1.6-0.3c2.1-0.3,5.1-0.5,8.3-0.9
		c0.5-0.1,1.9-0.1,2.7-0.4c0.5-0.1,0.9-0.6,1.3-0.9c1.3-1.5,1.9-3.7,0.1-5.6c-1.5-1.5-3.1-1.3-5-1c-1.9,0.2-4,0.6-5.6,0.9
		c-0.5-0.2-0.5-0.7-1-1.6c-1.9-3.8-3.1-8.1-4.4-12.2c-0.4-1.1-1-2.2-1.5-3.4c1-0.3,1.8-0.7,2.6-0.7c1-0.1,3.7-0.7,4.7-0.9l6.8-1.8
		c0.4-0.1,4.4-2.5,4.5-2.8c0.5-0.8,1.2-1.6,1.3-2.5c0.1-0.9,0-2.3-0.6-2.8c-1.7-1.3-2.5-2.8-3-4.9c-0.7-3.1-1.8-6.1-2.8-9.1
		c-1.3-3.8-2.6-7.6-3.9-11.4c-0.3-0.9-1-1.6,0.3-2.6c2.8-2.2,5.4-4.7,8-7.1c2.2-1.9,4.4-3.4,7.6-2.3c2.6,0.9,7.6-1.9,8.6-4.5
		c0.1-0.2,0.3-0.5,0.2-0.6c0.1-1.1,0.4-1.9,1.3-2.4c0.8-0.5,1.5-0.8,2.2-1.5c0.6-0.6,1.6-1.6,2.3-2.1c3.3-2.3,6.8-4.4,10.1-6.7
		c4.8-3.4,9.5-6.9,14.2-10.3c0.5-0.4,1.1-0.6,1.7-0.9c-0.2,2.2-0.3,4.2-0.5,6.1c-0.3,2.7-0.3,2.7,2.1,3.9c1.4,0.7,3.7,0.4,4.8-0.7
		c1.1-1.1,2.3-2.3,1.4-4.3c-0.5-1.1-0.9-2.5-0.7-3.7C216.9,117.6,217.8,115.2,218.5,112.7z M99.1,34.2c2.2-2.1,5-2,7.8-2.2
		c0.6,0,1.1,0,1.3,0.2c0.5,0.4,1.1,0.6,1.6,1c0.3,0.2,0.6,0.5,0.9,0.7c0.9-0.4,2.4-0.6,3.3-1c0.2-1-0.2-2-0.1-2.8
		c0.4-2,0.1-4,0.3-5.7c0-0.7,0.3-3.3,0.4-4c0.5-3.5,3.6-3.9,6.6-5.3c0.8-0.6,1.5-1,2.1-1.4c0.2-0.1,1.3-0.2,1.7-0.3
		c1.9-0.5,3.6-0.4,5.2,0c0.5,0.1,1.1,1.5,1.1,2.2c-0.3,2.1-0.8,4.2-1.4,6.3c-0.8,2.7,1.3,6.3,4.1,6.5c5.1,0.4,10.1,0.7,15.2,1.1
		c1.4,0.1,2.9,0.5,4.3,1c0.4,0.2,0.9,1.6,0.6,1.8c-0.9,1-2.1,2-3.2,2.7c-1.5,1-3.3,1.7-3.6,3.8c-0.6,3.6,1,4.9,4.6,4.3
		c1.3-0.2,2.6,0,3.9,0.2c2.2,0.3,4.4,0.6,6.5,1.3c2.3,0.7,4.9,1.4,6.7,2.9c2.4,2,3.9,4.9,3.9,8.1c0.1,3-3.6,5-6.4,3.7
		c-2.5-1.2-5.8,0.6-6.2,3.3c-0.1,0.5-0.4,0.9-0.5,1.5c0.8,1.2,1.8,1.9,2.7,3.1c0.9,1.3,1.5,3,1.9,4.6c0.2,0.9-0.2,2-0.4,3
		c-0.7,2.7-3.1,3.5-5.3,4.4c-0.6,0.2-1.6-0.5-2.3-1c-0.4-0.2-0.5-0.7-0.9-1c-1.1-0.7-2.3-1.5-3.6-0.6c-1.2,0.9-1.6,2.2-1.4,3.6
		c0.4,2.3-0.7,4-2.1,5.6c-0.3,0.4-1.2,0.7-1.6,0.5c-1.2-0.5-2,0.1-2.7,0.9c-0.4,0.3-0.6,0.8-0.9,1.2c-1.9,2.4-2.4,2.5-4.7,0.5
		c-0.9-0.8-1.5-1.9-2.3-2.8c-0.7-0.7-1.4-1.4-2.2-2c-1.8-1.4-3.5-3-5.4-4.2c-1.9-1.2-3-1.3-5.1-2c-1.8-0.5-3.9-0.1-5.6,1.1
		c-1.5-1.5-2.2-2.2-3.5-3.5c-2.8-2.9-3.6-6.6-4.6-10.3c-0.4-1.6-0.8-3.1-0.9-4.7c0-0.4,0.6-1.2,1-1.4c2.8-0.7,4.4-2.8,4.1-5.8
		c-1.2-1.8-2.1-3.8-2.3-5.9c0-0.1,0-0.2,0-0.3c-0.1,0-0.2,0-0.3-0.1c-1-0.3-2-0.4-3-0.8l-3.4-0.8c-2.9-0.7-5.2-0.7-7.1-3.4
		C97,41.1,96.7,40,96.3,39C96.1,36.6,97.8,35.5,99.1,34.2z M126.2,86.8c-1.6,3.6-3.7,7-4.9,10.7c-0.9,3-2.8,5.6-3.7,8.6
		c-0.2,0.5-0.4,1.1-0.6,1.8c-1.6-0.9-2.4-2-2.9-3.6c-0.4-1.5-1-2.5-1.6-3.4c-0.6-0.7-1-1.6-1.4-2.4c-1.9-4-3.7-8-5.4-12.1
		c-1.2-2.9-2.1-6-3.5-8.8c-0.9-1.7-1.4-3.6-2.2-5.3c-0.4-1-0.2-1.3,0.8-1.9c1.4-0.8,2.4-1.5,2.9-1.8c0.5-0.4,1-0.7,1.5-0.8
		c0.3,0.3,0.5,0.8,0.7,1.4c1.3,3.7,2.6,7.3,5.3,10.2c0.3,0.3,0.6,0.5,0.9,0.7c0.9,0.6,1.6,1.3,2.7,2.1c0.3,0.3,1.3,1.2,2.6,1.2
		c1.1-0.1,1.5-0.8,2.1-1.1c0.8-0.5,2.1-0.7,4.8,1.2c0.6,0.3,1.5,1.3,1.8,1.7C126.5,85.6,126.4,86.4,126.2,86.8z M153.1,187.5
		c-1.4,0.5-2.7,0.8-4.2,1c-1.2,0.2-1.7,0.4-2.9,0.6c-0.3,0-2,0.3-2,0.4c-1,0.4-1.8,0.4-3,0.7c-5,1.1-10,2-15.1,3
		c-3.3,0.6-6.6,1.2-9.9,2c-1.5,0.3-3,0.9-4.5,1.3c-0.6,0.2-1.3,0.3-2,0.4c-1.7,0.2-2-0.4-2.3-2.2c-0.5-3.1-1.1-5.2-1.2-8.4
		c0-0.3-0.1-1.5-0.2-1.8c-0.2-0.9-0.2-1.7-0.9-4.2c-0.6-1.3-0.7-2.7-1-4c-0.7-2.7-1.4-5.5-1.5-8.2c0-2.2-0.4-4.3-0.7-6.4
		c-0.7-3.7-1.4-7.4-1.9-11.1c-0.4-2.4-0.5-4.8-0.8-7.2c-0.2-2.4-0.4-4.9-0.7-7.3c-0.5-5.1-1.1-10.3-1.7-15.4
		c-0.1-0.6-0.3-1.2-0.4-1.8c-0.4-1.8-0.5-2.1-0.4-2.5c-0.1-0.9-0.2-1.9-0.3-2.4c-0.2-1-0.6-2.7-2.7-3.6l-5-3
		c-0.3-0.1-1.3-0.5-2.3-0.9c-0.6,0-1.2-0.2-1.7-0.4c-0.5-0.1-1-0.2-1.5-0.5c-3.9-0.4-5-4.8-3.5-7.6c0-0.2,0.1-0.5,0.1-0.7
		c0-0.2,0.1-0.4,0.2-0.6c0-0.4,0.1-0.9,0.2-1.5c0-0.1,0-0.2,0.1-0.2c0-0.6,0-1.1,0.1-1.6c0.7-2.6-0.9-4.4-1.5-6.6
		c-0.6-1.8-1.5-3.5-2.4-5.5c2-0.4,3.8-0.7,5.6-1c0.3,0,0.6,0.2,0.8,0.5c0.8,1,1.6,1.9,2.2,3c2.3,4.1,4.4,8.3,6.6,12.4
		c1,1.8,2.1,3.5,3.1,5.3c0.6,1.2,1,2.4,1.4,3.7c0.3,0.7,0.5,1.4,0.9,1.9c1.7,2,3.6-0.2,4.1-0.5c0.4-0.3,0.6-0.5,1-0.7
		c0.7-0.4,0.9-0.9,0.9-1.2c-0.1-0.5-0.2-0.8-0.6-1.6c-0.6-1.4-0.8-1.9-1.7-3.2c-0.4-0.7-1-2.2-1.8-3.4c-0.7-1.1-1.2-2.3-2.1-3.7
		c-0.5-0.8-0.9-1.5-1.3-2.3c-2.3-4.9-4.6-9.8-7-14.6c-1.1-2.2-2.3-4.3-4.8-5.1c-1.3-0.4-2.4-0.4-2.9,1.3c-0.4,1.4-0.4,1.7-1.4,2
		c-1.4,0.4-2.4,0.7-3.1,1c-1.7,0.7-2.9,0.5-4.1,0.5c-2,0-4-0.5-6-0.7c-1.1-0.1-2.2-0.3-3.3-0.2c-1.9,0.1-5.1-2.2-5.5-4.1
		c0-0.2-0.1-0.4-0.2-0.5c-1.2-1.3-1.1-2.7-0.4-4.3c0.5-1.2-2-4.5-3.5-4.7c-2.1-0.3-4.1,1-5.4-1.1c-0.1-0.2-0.4-0.4-0.6-0.8
		c-0.3-2.3,0.2-4.6,2.2-5.7c1.1-0.6,2.2-1.4,3.2-2.2c1.6-1.2,0.8-2.9,0.3-4.2c-0.2-0.6-1.1-1.1-1.6-1.5c-2.5-1.9-5.6,0.1-7.9-1.7
		c-1-0.7-2.2-1.3-2.8-2.3c-0.4-0.8-0.3-2.1,0-3c1-3,3.3-4.8,6.1-6c3.3-1.4,5.4-1.4,8.4,0.5c0.5,0.3,0.6,1.2,1,1.9
		c0.7,1.4,0.5,3.2,2.5,4c2.2,0.9,4.1-0.5,4.3-1.2c-0.2-1.8,0-3.3,2.3-4.6c2.3-1.3,4.6-3.1,7.5-3.7c1.4-0.3,3-0.5,4.3-0.2
		c1.4,0.3,2.1,0.6,1.9,2c-0.4,2.6-1.8,4.5-4.1,5.8c-1.5,0.9-1.4,2.2-0.4,4.9c0.5,1.3,1.5,1.5,2.9,1.3c4.4-0.7,8.5,0.6,12.5,1.9
		c2.3,0.8,4,2,4.9,4.4c0.6,1.5-0.1,2.6-0.6,3.6c-1.5,2.9-6.1,6.5-10.6,5.6c-0.8-0.2-2,0.7-2.7,1.5c-0.9,1.1-0.1,4.8,0.9,5.7
		c0.8,0.7,1.5,1.3,2.8,0.7c1.1-0.5,2.6-0.3,3.8-0.7c1.1-0.3,2.2-1,3.1-1.4c1.4-1.5,2.6-3.1,4.2-4.2c2.8-2.1,4.5-4.9,5.1-8.3
		c0.1-0.4,0.5-1.2,0.6-1.2c1,0.1,2.1,0.4,3.1,0.7c0.1,0-0.1,1.2-0.3,1.7c-0.9,2.3-1.9,4.5-2.1,7c-0.1,0.9-0.5,2.7-1.9,4.1
		c-0.4,0.5-1.4,1-1.4,1c-0.6,0.4-1.5,0.7-2.2,1.1c-1.7,1-2.9,1.8-2.7,3.6c0.2,1.6-0.1,1.7,0.3,3.2c0.6,2.2,1.4,4.4,2.3,6.5
		c1.8,4.3,3.8,8.5,5.7,12.8c0.6,1.5,1.1,3,1.7,4.5c1.1,2.4,2.2,4.8,3.4,7.2c1.2,2.5,1.9,5.1,2.4,7.8c0.4,2.5,1.9,3.3,4.7,2.7
		c-0.7,2.1-1.5,4-1.9,6c-0.7,3.2-1.3,6.5-1.6,9.8c-0.2,1.4,0.3,2.2,0.8,2.4c0.7,0.3,1.3,0.4,1.8,0.3c0.2,0,1.1-0.1,1.7-0.2
		c0.5-0.1,1-0.2,1.4-0.3c0,0,0,0,0,0v-2.9c0,0,0,0,0,0c-0.2-0.6-0.1-1.1,0-1.6c0,0,0,0,0,0c0.2-0.9,0.6-2,0.6-2.9l0.2-1.6
		c0,0,0.1-0.6,0.1-0.6c0.3-1,2.8-6.9,3.3-7.8c1.4-2.7,2.2-5.7,3.5-8.4c1.8-3.6,5.3-12,7.4-15.4c0.9-1.5,1.6,0.2,2.6,1.1
		c0.9,0.9,3.1,2,3.7,2c1.5,0.1,0.6,2,0,3.3c-0.6,1.2-1.6,2.3-2.1,3.6c-1.2,3.2-2.1,6.5-3.1,9.7c-1.2,4-2.2,8.1-3.3,12.1
		c-0.6,2.3,1,4.8,3.5,5.2c0.4,0.1,1,0.3,1.1,0.6c1.7,3.4,3.3,6.9,4.9,10.4c1.1,2.3,2.1,4.7,3.1,7c1.4,3.2,2.8,6.5,3.9,9.8
		c1.4,4.2,2.5,8.6,3.9,12.9c0.9,2.7,2.3,5.3,2.9,8.1C152.9,181,154.4,183.3,153.1,187.5z"/>
	<path d="M32.5,74.1c0.2,0.1,0.4,0.2,0.8,0.2c0.2-1.6,0.5-3.2,0.7-4.6c-0.2,0-0.3,0-0.5,0.1C32,70.9,30,72.2,32.5,74.1z"/>
	<path d="M123.2,181.2c0.3,1.5,0.5,2.5,0.7,4.2c0,0.9-0.2,2-0.8,2.7c-1.1,1.3-1.9,1.9-4,1.6c-1-0.1-2-0.4-2.6-1.4
		c-0.7-1.1-0.4-1.7-0.8-2.9c-0.3-0.8-0.7-1.5-1-2.3c-0.5-1.4-0.8-2.9-1.4-4.3c-1.3-3.2-2.3-5.8-3.7-8.9c-0.1-0.2-0.5-1.2-0.5-1.3
		c0-1.6,0.1-3,0.8-4.5c0.8-1.9,2.6-2.4,4.4-1.3c1.8,1,3.1,2.5,3.7,4.5c0.7,2.3,1.4,4.6,2.2,6.8c0.2,0.6,0.4,1,0.8,1.6
		c0.6,0.8,1,1.8,1.5,2.7C122.8,179.1,122.9,180.1,123.2,181.2z"/>
	<path d="M126.7,159.8c2.7,0,5.3,2.9,6,5.5c0.7,2.6,2.1,5,3.5,7.4c0.9,1.7,2.5,3.1,3.3,4.8c0.7,1.5,1.1,3.4,1.1,5
		c0,2-1.8,3.4-4.2,3.3c-1.3-0.1-2.8-1.1-3.7-2.2c-1.2-1.5-1.8-3.4-2.9-5.1c-0.7-0.9-1.1-1.5-1.7-2.5c-0.4-0.7-1.1-1.8-1.5-2.8
		c-1.5-3-1.5-4.5-2.4-7.7c-0.2-0.7-0.6-1.5-0.7-2.2C123.3,160.9,124.3,159.9,126.7,159.8z"/>
</g>
</svg>
