<?xml version="1.0" encoding="utf-8"?>
<!-- Generator: Adobe Illustrator 17.1.0, SVG Export Plug-In . SVG Version: 6.00 Build 0)  -->
<!DOCTYPE svg PUBLIC "-//W3C//DTD SVG 1.1//EN" "http://www.w3.org/Graphics/SVG/1.1/DTD/svg11.dtd">
<svg version="1.1" id="Background" xmlns="http://www.w3.org/2000/svg" xmlns:xlink="http://www.w3.org/1999/xlink" x="0px" y="0px"
	 viewBox="0 0 240 240" enable-background="new 0 0 240 240" xml:space="preserve">
<g>
	<path fill="#6C65FF" d="M221.5,134.5c-2.5-1.9-5.3-3.4-8-5.1c-0.1-0.1-0.3-0.1-0.5-0.2c-2.2-0.8-4.5-1.6-6.7-2.5
		c-1.2-0.5-2.1-0.4-3.5-0.4c-0.9,0.1-1.6,0-2-0.1c-2-0.3-3.4-0.5-5.4-0.5c-2.9,0-5.9,0.3-8.8,0.5c-0.1-0.1-0.2-0.2-0.3-0.3
		c1.1-1.1,2.2-2.3,3.3-3.3c3.9-3.5,8.2-6,13.5-6.6c1.1-0.1,2.5-1.4,3.1-2.5c0.4-0.7-0.3-2.3-1-3.1c-1-1.1-2.5-2.2-4.2-1.2
		c-1.1,0.6-2.2,1.4-3.3,2.1c-3.9,2.3-7.7,4.7-11.6,7c-3.6,2.2-6.2,5.2-7.2,9.4c-0.2,0.7-0.1,1.4-1.2,1.2c-0.8-0.1-1.6-0.2-1.5-1.4
		c0-0.6-0.2-1.2-0.5-1.8c-1.2-2.5-2.6-4.9-3.8-7.4c-2-3.9-3.2-8.2-6.5-11.5c-2-2-2.8-5-5.2-6.9c-1.5-1.2-2.7-2.9-4-4.4
		c-0.8-0.9-1.4-1.9-2.2-2.8c-2.2-2.3-4.5-4.6-6.9-6.9c-2.1-2-4.1-4.2-6.6-5.7c-2.5-1.6-3.4-2.3-6.1-4.9c-0.5-0.5-1.4-1.9-1.4-2
		c-1.9-3.7-2.6-5.5-4.7-9.1c-1.6-2.8-2.6-3.9-4.6-6.5c-0.2-0.3-1.4-2.2-2.3-3.4c-1.2-1.5-2.9-3.4-4.5-5.4c-1.3-2.3-3.2-3.3-5-2.6
		c-0.6,0.1-2.1,1.2-2.2,1.7c-0.1,6.7-0.7,12.4-1,18.8c-0.3,0,0.7,0.1,0.6,0.1c0,0-2.2-0.2-2.4-0.3c-2.4-0.2-2.5-0.3-4.9-0.4
		c-3.1-0.1-6.2-0.2-9.4-0.2c-2.1,0-4.2,0.3-6.3,0.4c-0.4,0-1.1-0.2-1.2-0.5c-0.7-2.3-2-4.4-2.7-6.6c-1.2-3.7-1.8-7.6-2.3-11.5
		c-0.7-4.9-1.6-9.7-3.8-14.1c-2-3.9-3.2-7.9-3.9-12.1c-0.1-0.8-0.8-1.8-1.5-2.3c-1-0.8-2.2-1.3-3.3-1.8c-0.9-0.4-1.6-0.4-2.4,0.4
		c-1.4,1.3-3.1,2.2-4.7,3.3c-0.7,0.5-1.5,0.8-2.1,1.3c-1,0.9-1.8,2-2.8,2.9c-1.9,1.8-3.8,3.5-5.7,5.3c-2.7,2.5-5.5,5-8.2,7.5
		c-2.1,2-4.2,4-6.4,6c-1.4,1.3-2.9,2.7-4.4,3.9c-1.3,1.1-3,1.9-4.1,3.1c-1.9,2-1.6,4.4,0.4,6.5c0.3,0.4,1,1.4,1.4,1.7
		c0.4,0.3,1,0.7,2.8,1.3c1,0.3,2.3,0.8,3.2,1c3.1,0.9,6.1,1.9,9.2,3l10.7,4.1c3.3,1.7,6.6,3.3,10,4.8c2.4,1,4.8,1.9,7.4,2.4
		c2.4,0.6,2.7,0.7,2.7,3.1c0,5.2,0,10,0.3,13c0.4,3.9,0.7,7.8,1.1,11.7c0,0.5,0.2,1,0.1,1.4c-0.8,2.6-0.2,5,0.4,7.5
		c0.6,2.3,1,4.6,2,6.8c1.3,2.9,2.8,5.8,4.4,8.5c0.9,1.7,2.2,3.1,3.3,4.7c1.9,2.5,3.6,5.2,5.7,7.6c2.7,3.2,6.2,5.3,9.5,7.8
		c2.3,1.7,4.3,3.4,7,4.4c2.6,0.9,4.8,2.8,7.1,4.3c0.4,0.3,0.7,0.6,1.3,1.1c-2.4,0.9-4.2,2.8-5.7,4c-0.5,0.4-1.2,1-1.6,1.7
		c-0.6,0.8-1.1,1.7-1.7,2.5c-1.8,2.6-3.1,5.4-1.9,8.7c0.7,2,2.2,2.5,4,1.3c0.8-0.5,1.7-0.9,2.6-1.2c1.5-0.4,3.8-1.9,3.6-3.2
		c-0.1-0.8-1.4-1.4-2-2.2c-0.3-0.5-0.5-1.4-0.3-1.8c2.1-3.3,5.3-5.3,8.8-6.6c0.6-0.2,1.7,0,2.3,0.4c0.8,0.5,1.4,1.4,2.1,2.1
		c-1.3,1.5-3,2.6-3.7,4.2c-1.3,3-2.1,6.3-3.1,9.5c-0.3,0.9-0.6,1.9-0.3,2.7c0.5,1.5-0.1,2.3-1,3.3c-3,3.3-2.9,6.5-0.2,9.2
		c2.2,2.3,6.9,2.7,9.6,0.9c0.9-0.6,1.5-0.6,2.5-0.1c1.1,0.6,2.3,0.9,3.5,1.3c1,0.3,2.1,0.5,3.1,0.8c2.9,0.7,5.8,1.4,8.7,2.2
		c1.5,0.4,3.1,1,4.5,1.6c0.2,0.1,0.5,0.2,0.8,0.3c1.2,0.4,2.4,0.8,3.6,1.3c2.7,1.1,5.4,2,8,3.3c1.6,0.7,3.1,1.8,4.4,2.9
		c1.2,1.1,2.2,2.5,3.5,4c-1.5,1-3.2,2-4.8,3.3c-2.1,1.7-3.9,3.7-6.1,5.3c-1.9,1.4-2,3.2-1.7,5.2c0.2,1.4,2,2.7,3,2.2
		c2.2-1,4.5-1.6,5.8-4.2c1.9-3.8,6.2-5.1,9.5-7.2c2.3-1.5,5.2-2,6.9-4.5c0.2-0.3,0.5-0.5,0.8-0.6c1.7-0.8,2.2-1.7,1.2-3.3
		c-1.1-1.9-2.5-3.6-4-5.3c-2.2-2.6-4.7-4.9-6.9-7.5c-1.5-1.8-2.6-3.8-5.4-3.9c-1.5-0.1-2.5,0.1-2.5,1.6c0.1,1.8,0.6,3.7,1.4,5.3
		c0.8,1.5,2.2,2.8,3.3,4.1c-0.1,0.1-0.2,0.2-0.3,0.3c-1.5-0.7-3.1-1.4-4.6-2c-4.3-1.9-8.6-3.9-13-5.6c-3.2-1.3-6.6-2.3-10-3.3
		c-4-1.2-8-2.2-12-3.4c-0.7-0.2-1.4-0.6-1.8-1.1c-1.1-1.6-2-3.2-2.9-4.9c-1.2-2.2-1.2-4.5,0-6.7c1-1.9,2-3.8,3.2-5.6
		c1.8-2.7,5-3.8,7.9-3.3c3.8,0.7,7.5,2.4,11.6,1.3c2.8-0.7,5.9-0.3,8.9-0.4c2.7-0.1,5.5-0.2,8.2-0.4c1.1-0.1,2.3-0.2,3.4-0.5
		c2.7-0.7,5.6-1.2,8.1-2.5c3.4-1.8,6.6-4,9.6-6.3c2.3-1.8,4.4-3.8,4.5-7.1c0-4.7-1-9.2-3.4-13.3c-0.4-0.8-1-1.5-1.6-2.2
		c-0.6-0.8-0.5-1.6,0.5-1.9c2.4-0.6,4.7-1.2,7.1-1.4c1.6-0.2,3.2,0.5,4.7,0.4c2.9-0.1,5.5,0.2,8.3,1.2c2.8,1,5,2.2,6.6,4.7
		c0.5,0.8,1.1,1.6,1.7,2.3c1.5,1.8,4.8,1.7,6.3-0.1C223.7,138.5,223.4,135.9,221.5,134.5z M78.7,70.7c-1,0.1-2,0-3-0.2
		c-3.3-0.7-6.6-1.3-9.8-2.2c-2.2-0.6-4.2-1.9-6.3-2.4c-3.6-0.8-6.7-2.8-9.8-4.6c-2.3-1.3-4.7-2.2-7.1-3.2c-1.3-0.6-2.7-1.2-4-1.8
		c-0.8-0.3-1.6-0.6-2.3-1c-0.6-0.4-1.5-0.9-1.6-1.5c-0.1-0.5,0.6-1.3,1.1-1.8c1-1.1,2-2.1,3.1-3.1c4.1-3.8,8.2-7.6,12.4-11.4
		c3.2-2.9,6.5-5.9,9.8-8.7c1.2-1.1,2.6-1.9,4.4-3.1c1.1,2.1,1.9,4,2.9,5.8c3.6,6.5,5.4,13.6,6.7,20.9c0.3,1.6-0.1,3.4,0.3,5
		c0.6,2.6,1.6,5.1,2.4,7.6c0.5,1.6,1.2,3.1,1.7,4.6C79.6,69.8,79,70.7,78.7,70.7z M113.8,50.7c0.2-0.1,5.4,7.5,5.6,7.4
		c2,3.1,5.7,8.8,7.7,14.1c-0.2,0.1-0.2,0.2-0.3,0.3c-1.6-0.8-3.3-1.7-4.9-2.5c-1.4-0.7-2.8-1.4-4.3-1.7c-2.4-0.5-3.6-1.1-3.6-4.4
		c-0.1-3.3,0-4-0.1-7.1C113.8,56.1,113.3,51.4,113.8,50.7z M112.6,75.3 M115.5,75.9c0.2,0,0.8,0.2,1.2,0.3c2.3,0.9,4.5,1.9,6.7,2.9
		c1.6,0.7,3,1.6,4.6,2.1c0.9,0.3,1.8,0.7,2.7,1.3c0.7,0.3,1.5,0.7,2.2,1.1c3.4,1.8,6.3,4.1,8.6,6.7c0.5,0.3,0.9,0.6,1.3,0.9
		c0.4,0.4,0.9,0.7,1.3,1c1.3,1.2,1.6,1.1,2.5,2.5c1.6,2.8,3.3,5.3,5.9,7.4c1.6,1.3,2.7,3.4,4.1,5c0.8,0.9,1.8,1.7,2.7,2.5
		c0.2,0.1,0.8,1,1,1.2c1.6,2.5,2,3.5,3,5.9c1.1,2.7,2.8,5.2,4.2,7.8c0.5,0.9,0.7,2,1,3c-1.8,0.3-3.2,0.6-4.5,0.8
		c-0.8,0.2-1.4,0-1.7-1c-1-3.4-1.9-6.8-3.3-10c-0.6-1.5-1.9-2.8-3.2-3.8c-1.5-1.2-3.7-0.2-4.2,1.6c-0.5,1.8-0.5,3.7,0.1,5.6
		c0.3,1.4,0.7,2.2,1.1,3.6c0.1,0.5,0.3,0.9,0.4,1.4c0.4,1.5,0.8,3.1,1.1,4.6c0.1,0.3-0.2,0.8-0.5,1c-3.7,2.2-7.4,4.3-11.2,6.4
		c-0.1,0-0.2,0-0.4,0c-0.5-2.5-1.4-4.6-2.4-7.3c-0.4-1.5-1.1-3.5-1.9-6c-1.1-2.7-4.8-4.8-7.2-3.5c-0.4,0.2-1,0.8-1,1.2
		c0,1.9,0,3.8,0.4,5.5c1,3.8,2.1,7.6,3.5,11.3c0.5,1.5,1.1,3.1,2.9,3.8c0.4,0.1,0.7,0.5,1,0.7c-0.3,0.4-0.6,0.8-0.9,1.1
		c-2,1.4-3.2,4.6-2.5,7c0.3,1.1-0.2,1.3-1,1.1c-0.8-0.1-1.7-0.5-2.5-0.5c-1.3,0.1-2.7,0.1-3.7,0.7c-1.6,0.8-2.9,1.2-4.5,0.2
		c-3.3-2.1-6.7-4.3-10-6.4c-0.2-0.2-0.5-0.3-0.7-0.4c-5.3-1.8-9.6-5.4-13.5-9.1c-2.9-2.7-5-6.3-7-9.7c-2-3.3-3.3-7.1-5.1-10.5
		c-2.6-5-2.3-10.4-3-15.7c-0.3-2.4-0.6-4.7-0.8-7.1c-0.2-2.1,0-6.3,0.2-11.4c0-1.1,0.1-2.1,0.3-3.2c0.5-2.9,2.1-4.7,5.1-5.4
		c5-1.1,9.6-2.3,14.8-1.3c0.5,0.1,1.6,0.2,2.1,0.3c1.4,0.3,2.7,0.6,4,0.9 M183.2,153.1c-2.1,1.6-4.5,2.8-6.8,4.1c-1,0.6-2,1-3.1,1.4
		c-0.7,0.3-1.4,0.4-2.1,0.6c-2.5,0.8-3,0.9-5.1,1.1c-2.6-0.1-3.5,0.1-4.5,0.1c-0.3,0-2.7,0.1-3.9,0.2c-4.2,0-6,0.1-10.2-0.3
		c-1.6-0.2-3.3-0.2-4.9-0.4c-0.3,0-0.7-0.5-0.8-0.9c-0.6-2.5-1.4-5-1.5-7.5c-0.1-1.3,0.9-2.8,1.8-3.9c2.3-2.8,4.9-5.3,8.2-6.7
		c4.5-1.9,9.2-3.7,13.8-5.4c0.7-0.2,1.3-0.2,2-0.2c0.8,0,1.7,0,2.5-0.1c0.4,0,1.6-0.1,1.9-0.1c2.8,0.3,4.8,0.3,7.4,1.5
		c2.2,1,3.9,2.5,5.3,4.5c0.8,1.1,1.4,2.4,2.1,3.6C186.6,147.2,185.8,151.2,183.2,153.1z"/>
	<path fill="#6C65FF" d="M151.2,156.9c-0.6-0.4-1.6-0.6-1.8-1.2c-0.3-0.8-0.1-1.8,0-2.7c0.8-4.1,4.6-4.5,7.5-5.9
		c3-1.4,6.2-2.3,9.4-3.1c2.6-0.7,3.6-1,5.9-1.6c0.1-0.1,2.2-0.7,2.3-0.7c1.5,0,4.7,3.4,4.6,4.8c0,0.1,0,0.1,0,0.2
		c0,0.4-3.9,2.1-4.2,1.9c-3.1,0.4-6.2,0.7-9,1.7c-4.5,1.6-8.7,3.8-13.1,5.8C152.5,156.3,152,156.5,151.2,156.9z"/>
</g>
</svg>
